<?xml version="1.0" encoding="utf-8"?>
<!-- Generator: Adobe Illustrator 16.0.0, SVG Export Plug-In . SVG Version: 6.00 Build 0)  -->
<!DOCTYPE svg PUBLIC "-//W3C//DTD SVG 1.1//EN" "http://www.w3.org/Graphics/SVG/1.1/DTD/svg11.dtd">
<svg version="1.1" id="Layer_1" xmlns="http://www.w3.org/2000/svg" xmlns:xlink="http://www.w3.org/1999/xlink" x="0px" y="0px"
	 width="189.529px" height="94.763px" viewBox="6.74 -22.744 189.529 94.763" enable-background="new 6.74 -22.744 189.529 94.763"
	 xml:space="preserve">
<path d="M129.993,19.37c-1.142-0.52-3.201-0.856-6.429,1.473l-22.062,15.003l-22.06-15.003c-3.243-2.357-5.288-1.991-6.43-1.473
	c-1.157,0.525-3.099,2.001-3.099,5.97v40.286c0,3.97,1.941,5.443,3.099,5.972c0.618,0.279,1.289,0.423,1.968,0.421
	c1.193,0,2.435-0.573,4.462-1.895l22.06-15.004l22.062,15.004c2.015,1.314,3.267,1.895,4.461,1.895c0.83,0,1.5-0.209,1.968-0.421
	c1.155-0.526,3.099-2.002,3.099-5.972V25.34C133.092,21.371,131.15,19.896,129.993,19.37z M102.641,43.043
	c0.737,0.683,1.145,1.543,1.145,2.439c0,0.896-0.405,1.759-1.145,2.438l-1.138,0.771l-1.136-0.771
	c-0.739-0.682-1.144-1.543-1.144-2.438c0-0.896,0.403-1.759,1.145-2.439l1.135-0.771L102.641,43.043z M75.242,66.513v-42.15
	L96.827,39.09c-1.86,1.684-2.928,3.998-2.928,6.395c0,2.396,1.068,4.709,2.928,6.393L75.242,66.513z M127.766,66.534l-21.584-14.659
	c1.857-1.684,2.928-3.997,2.928-6.393c0-2.396-1.067-4.711-2.928-6.395l21.584-14.729V66.534 M6.74,42.877h47.381v5.212H6.74V42.877
	z M148.884,42.877h47.383v5.212h-47.383V42.877z M28.755-12.567l-8.791,9.1l-8.829-9.1V7.366H6.74v-29.081
	c-0.001-0.333,0.268-0.604,0.601-0.605c0.165-0.001,0.324,0.066,0.438,0.187L20.003-9.483L32.11-22.123
	c0.231-0.24,0.614-0.248,0.855-0.017c0.118,0.114,0.185,0.271,0.186,0.435V7.366h-4.396V-12.567z M39.607-7.099h-2.748v-14.629
	c0-0.328,0.266-0.594,0.594-0.594h4.309c2.826,0,5.299,1.502,5.299,4.566c0,2.075-1.364,3.539-3.124,4.172L48.147-7.1h-3.084
	l-3.855-6.108h-1.601V-7.099z M39.607-15.679h2.174c1.305,0,2.531-0.89,2.531-2.075c0-1.404-1.227-2.097-2.551-2.097h-2.154V-15.679
	z M60.892,7.366v-29.085c0-0.333,0.271-0.604,0.604-0.604h9.344c5.822,0,10.411,2.97,10.411,9.023c0,5.667-4.78,9.329-10.141,9.329
	h-3.701V7.366H60.892z M70.994-9.984c1.889,0,3.701-0.926,3.701-3.314c0-2.121-1.928-3.047-4.048-3.047h-3.239v6.361H70.994z
	 M87.728,7.366h-6.979l14.152-29.301c0.163-0.34,0.571-0.481,0.91-0.318c0.14,0.067,0.252,0.18,0.318,0.319l14.077,29.3h-6.979
	l-2.354-5.592H90.157L87.728,7.366z M92.779-4.2h5.514l-2.775-6.208L92.779-4.2z M113.602,4.051l3.393-4.703
	c2.968,2.082,4.587,2.391,6.398,2.391c2.506,0,3.586-0.771,3.586-2.775c0-4.741-12.877-3.586-12.877-13.108
	c0-6.67,4.974-8.599,9.215-8.599c3.433,0,5.281,0.578,9.447,3.701l-3.395,4.704c-3.009-2.159-4.357-2.391-6.056-2.391
	c-1.657,0-2.774,0.617-2.774,2.583c0,1.389,2.313,2.544,4.01,3.161c4.241,1.542,8.868,4.048,8.868,9.947
	c0,6.632-4.55,8.791-10.024,8.791C120.154,7.752,117.996,7.212,113.602,4.051L113.602,4.051z M162.182,7.366h-6.518V-4.47h-9.368
	V7.366h-6.518v-29.689h6.518v11.877h9.368v-11.877h6.518V7.366z M173.785,7.366h-6.979l14.154-29.301
	c0.164-0.34,0.571-0.481,0.911-0.318c0.139,0.067,0.251,0.18,0.318,0.319l14.08,29.3h-6.98l-2.354-5.592h-10.723L173.785,7.366
	L173.785,7.366z M178.838-4.2h5.517l-2.776-6.208L178.838-4.2z"/>
</svg>
