<?xml version="1.0" encoding="utf-8"?>
<!-- Generator: Adobe Illustrator 16.0.0, SVG Export Plug-In . SVG Version: 6.00 Build 0)  -->
<!DOCTYPE svg PUBLIC "-//W3C//DTD SVG 1.1//EN" "http://www.w3.org/Graphics/SVG/1.1/DTD/svg11.dtd">
<svg version="1.1" id="Layer_1" xmlns="http://www.w3.org/2000/svg" xmlns:xlink="http://www.w3.org/1999/xlink" x="0px" y="0px"
	 width="212.637px" height="77.84px" viewBox="45.093 -46.12 212.637 77.84" enable-background="new 45.093 -46.12 212.637 77.84"
	 xml:space="preserve">
<title>Page 1</title>
<g>
	<path d="M50.055,9.924c-0.146-0.118-0.306-0.198-0.404-0.326C49.139,8.94,48.638,8.274,48.148,7.6
		c-0.091-0.126-0.085-0.322-0.166-0.462c-0.263-0.459-0.507-0.94-0.841-1.349c-0.157-0.193-0.262-0.355-0.302-0.594
		c-0.013-0.08-0.178-0.123-0.224-0.211c-0.074-0.142-0.098-0.31-0.163-0.453c-0.068-0.146-0.166-0.277-0.281-0.465
		c-0.003,0.006,0.069-0.097,0.141-0.198l-0.154,0.044l-1.064-2.351c0.37-0.163,0.589-0.391,0.559-0.847
		c-0.034-0.532,0.075-0.64,0.603-1.001c0.047-0.031,0.096-0.136,0.078-0.179c-0.271-0.669,0.345-0.996,0.594-1.435
		c0.329-0.582,0.787-1.1,1.229-1.606c0.355-0.408,0.828-0.72,1.15-1.148c0.262-0.353,0.758-0.508,0.897-0.748
		c0.267-0.457,0.881-0.178,1.048-0.689c0.032-0.098,0.481-0.057,0.815-0.087c0.035,0.508,0.083,1.062,0.107,1.62
		c0.076,1.697,0.104,3.398,0.245,5.092c0.035,0.425,0.293,0.931,0.312,1.314c0.03,0.559,0.173,1.054,0.329,1.561
		c0.12,0.39,0.306,0.76,0.443,1.146c0.104,0.288-0.059,0.734,0.494,0.761c0.057,0.002,0.058,0.362,0.148,0.519
		c0.394,0.673,0.804,1.334,1.231,1.983c0.189,0.288,0.46,0.523,0.688,0.788c0.933,1.081,2.229,1.31,3.532,1.539
		c1.076,0.189,2.166,0.191,3.18-0.163c0.465-0.164,1.055-0.114,1.42-0.611c0.143-0.191,0.492-0.226,0.744-0.34
		c0.85-0.377,1.608-0.931,2.227-1.626c0.286-0.322,0.77-0.472,1.048-0.799c0.329-0.388,0.972-0.471,1.049-1.093
		c0.005-0.036,0.145-0.041,0.192-0.09c0.262-0.263,0.516-0.533,0.793-0.825l0.076,0.104c0.028-0.312,0.062-0.57,0.082-0.829
		c0.032-0.414,0.063-0.828,0.09-1.242c0.022-0.383,0.046-0.765,0.049-1.148c0-0.085-0.09-0.17-0.135-0.255
		c-0.051-0.089-0.156-0.212-0.127-0.268c0.206-0.406,0.099-0.837,0.028-1.226c-0.166-0.953-0.411-1.894-0.649-2.829
		c-0.042-0.161-0.219-0.285-0.3-0.386c0.022-0.112,0.1-0.288,0.058-0.325c-0.263-0.228-0.341-0.539-0.462-0.839
		c-0.375-0.934-0.745-1.874-1.18-2.782c-0.209-0.441-0.372-0.903-0.592-1.331c-0.258-0.506-0.641-0.949-1.018-1.488
		c0.011-0.024,0.065-0.167,0.122-0.308c-0.044-0.031-0.088-0.062-0.131-0.095c-0.046,0.089-0.096,0.177-0.104,0.198
		c-0.118-0.233-0.225-0.503-0.383-0.739c-0.126-0.192-0.315-0.343-0.476-0.509l0.409-0.154c-0.217-0.039-0.435-0.078-0.65-0.119
		l-0.069-0.897c-0.083,0.012-0.222,0.028-0.369,0.05c-0.006-0.048-0.007-0.075-0.011-0.102c-0.028-0.14-0.023-0.298-0.088-0.417
		c-0.199-0.362-0.464-0.689-0.629-1.064c-0.273-0.614-0.466-1.264-0.744-1.876c-0.075-0.165-0.326-0.248-0.503-0.377
		c0.057-0.076,0.183-0.184,0.209-0.311c0.013-0.064-0.187-0.15-0.24-0.252c-0.132-0.246-0.246-0.5-0.344-0.761
		c-0.13-0.347-0.247-0.699-0.344-1.057c-0.021-0.078,0.064-0.185,0.114-0.306c-0.156,0.009-0.269,0.016-0.328,0.018
		c0-0.411,0.002-0.774-0.001-1.137c0-0.146-0.021-0.292-0.015-0.438c0.007-0.147,0.104-0.344,0.039-0.428
		c-0.482-0.639,0-1.388-0.258-2.052c-0.052-0.133,0.08-0.329,0.082-0.495c0.003-0.198-0.042-0.397-0.076-0.694
		c0.054-0.055,0.543-0.139,0.038-0.49c-0.034-0.023,0.022-0.163,0.018-0.247c-0.011-0.204-0.037-0.409-0.056-0.615l-0.167-0.019
		c0.071-0.163,0.142-0.324,0.229-0.529h-0.202l-0.357-1.55l-0.184,0.001l0.312-0.179l-0.238-0.221
		c-0.045-0.898,0.391-1.709,0.012-2.574l0.29-0.088l-0.191-0.703l0.508-0.593c-0.066-0.233-0.496-0.574,0.197-0.62
		c0.111-0.007,0.201-0.304,0.306-0.472c-0.073-0.006-0.146-0.013-0.219-0.02c0.106-0.32,0.207-0.626,0.307-0.935
		c0.217-0.132,0.549-0.222,0.198-0.678l0.288,0.147c-0.014-0.57,0.669-1.772,1.068-1.828c0-0.162-0.021-0.329,0.003-0.492
		c0.035-0.252,0.062-0.525,0.366-0.614c0.314-0.092,0.22-0.401,0.323-0.563c0.319-0.489,0.776-0.889,1.172-1.329
		c0.074-0.083,0.109-0.201,0.174-0.299c0.098-0.154,0.175-0.337,0.31-0.455c0.439-0.388,0.899-0.754,1.356-1.121
		c0.479-0.387,0.97-0.759,1.441-1.15c0.073-0.062,0.074-0.206,0.12-0.348c0.147-0.01,0.407,0,0.657-0.051
		c0.081-0.015,0.104-0.224,0.197-0.275c0.865-0.505,1.753-0.98,2.611-1.495c0.664-0.396,1.338-0.725,2.117-0.83
		c0.501-0.069,1.957,0.066,2.56,0.308c0.407,0.164,0.777,0.209,1.181-0.069c0.345-0.241,0.741-0.511,1.136-0.549
		c0.355-0.037,0.936,0.11,1.08,0.367c0.443,0.783,1.208,0.943,1.917,1.217c0.918,0.352,1.802,0.688,2.511,1.456
		c0.629,0.683,1.257,1.32,1.569,2.219c0.099,0.292,0.51,0.656,0.433,0.799c-0.301,0.553,0.465,0.731,0.322,1.262
		c-0.11,0.408,0.178,0.906,0.181,1.367c0.002,0.247-0.223,0.496-0.284,0.799l0.314-0.285c-0.105,0.312-0.199,0.522-0.253,0.742
		c-0.241,0.988-0.535,1.962-0.881,2.919c-0.179,0.493-0.62,0.771-0.73,1.318c-0.072,0.358-0.61,0.627-0.939,0.936
		c-0.122,0.115-0.229,0.249-0.365,0.346c-0.443,0.318-0.896,0.624-1.29,0.895c-0.397-0.595-0.104-1.226-0.534-1.76
		c-0.195-0.246-0.062-0.748-0.095-1.133c-0.021-0.263-0.09-0.522-0.09-0.784c0-0.403,0.038-0.808,0.061-1.239l-0.254,0.088
		l-0.354-0.878c0.013-0.011,0.092-0.073,0.167-0.13c-0.234-0.367-0.745-0.827-0.658-1.095c0.201-0.625-0.191-0.884-0.441-1.261
		c-0.01-0.014-0.025-0.031-0.022-0.045c0.169-0.847-0.621-1.257-0.879-1.911c-0.129-0.326-0.255-0.749-0.52-0.905
		c-0.354-0.213-0.521-0.521-0.763-0.803c-0.194-0.227-0.509-0.345-0.749-0.537c-0.801-0.647-1.679-1.113-2.723-1.228
		c-0.363-0.04-0.729-0.091-1.09-0.151c-0.612-0.105-0.804,0.4-1.091,0.754c-0.17,0.208-0.293,0.455-0.458,0.667
		c-0.035,0.044-0.166,0.001-0.251,0.013c-0.082,0.01-0.223,0.021-0.231,0.06c-0.173,0.636-0.77,0.841-1.207,1.207
		c-0.724,0.604-1.526,1.138-2.12,1.848c-0.454,0.542-1.022,1.153-0.7,2.069c0.104,0.295-0.173,0.731-0.287,1.101
		c-0.042,0.141-0.112,0.273-0.181,0.442l-0.201-0.064c-0.154,0.367-0.231,0.742-0.442,1.011c-0.314,0.399-0.298,0.853-0.369,1.297
		c-0.094,0.581,0.313,1.032,0.592,1.39c0.35,0.447,0.299,0.926,0.401,1.373c0.185,0.785,0.244,1.605,0.275,2.416
		c0.012,0.284-0.216,0.577-0.286,0.747c-0.26-0.14-0.467-0.262-0.684-0.364c-0.205-0.097-0.414-0.22-0.629-0.244
		c-0.328-0.036-0.659-0.031-0.986,0.014c-0.638,0.087-1.271,0.211-1.904,0.319c-0.023,0.058-0.051,0.115-0.077,0.173
		c0.265,0.216,0.501,0.574,0.79,0.621c0.939,0.155,1.898,0.347,2.839-0.041c0.36-0.148,0.646,0.046,0.631,0.415
		c-0.021,0.425,0.167,0.497,0.768,0.261L68.071-25.7c0.697-0.144,1.027,0.393,1.413,0.789c0.421,0.437,0.571,0.974,0.27,1.752
		c-0.471,0.071-1.116,0.166-1.759,0.265c-0.411,0.062-0.827,0.105-1.23,0.208c-0.131,0.033-0.34,0.254-0.317,0.319
		c0.06,0.166,0.21,0.389,0.358,0.419c1.057,0.22,2.114,0.473,3.186,0.564c1.014,0.087,1.802,0.471,2.41,1.253
		c0.129,0.167,0.19,0.387,0.278,0.584c0.289,0.643,0.555,1.297,0.87,1.926c0.312,0.629,0.678,1.235,1.018,1.852
		c0.107,0.194,0.223,0.387,0.32,0.587c0.358,0.707,0.713,1.416,1.064,2.125c0.42,0.849,0.852,1.694,1.25,2.555
		c0.146,0.317,0.198,0.676,0.3,1.013c0.241,0.81,0.543,1.604,0.708,2.429c0.15,0.773,0.153,1.577,0.229,2.367
		c0.071,0.735,0.149,1.472,0.23,2.272l1.763-0.445c0.229-0.202,0.435-0.392,0.646-0.568c0.684-0.572,1.354-1.157,2.06-1.704
		c0.38-0.294,0.834-0.495,1.224-0.78c0.271-0.196,0.456-0.518,0.738-0.687c0.372-0.225,0.793-0.379,1.21-0.517
		c0.643-0.209,1.286-0.445,1.949-0.542c0.756-0.11,1.531-0.087,2.299-0.104c0.293-0.007,0.598-0.014,0.88,0.06
		c1.309,0.333,2.206,1.49,2.422,2.745c0.113,0.655,0.248,1.361,0.121,1.994c-0.209,1.027-0.577,2.024-1.385,2.802
		c-0.953,0.916-2.035,0.995-3.188,0.581c-0.298-0.104-0.515-0.436-0.69-0.595c0.104-0.677,0.191-1.253,0.285-1.828
		c0.027-0.21,0.066-0.419,0.118-0.625c0.162-0.627,0.393-1.246,0.47-1.883c0.023-0.216-0.272-0.617-0.504-0.693
		c-0.887-0.295-1.8-0.506-2.71-0.726C85.701-6.101,85.393-5.92,85.069-5.3c-0.546,1.045-1.142,2.064-1.669,3.118
		c-0.39,0.779-0.719,1.591-1.051,2.398c-0.259,0.626-0.521,1.256-0.702,1.906c-0.2,0.769-0.359,1.547-0.478,2.332
		c-0.12,0.692-0.194,1.392-0.225,2.094c-0.016,0.563,0.072,1.132,0.148,1.692c0.086,0.636,0.194,1.269,0.327,1.896
		c0.143,0.674,0.657,1.016,1.244,1.26c0.323,0.136,0.663,0.244,0.998,0.351c1.47,0.472,2.942,0.248,4.416,0.011
		c0.182-0.027,0.332-0.223,0.514-0.279c1.043-0.314,2.067-0.654,2.898-1.411c0.218-0.197,0.501-0.335,0.771-0.455
		c0.798-0.354,1.329-1.126,2.087-1.453c1.065-0.46,0.527-1.238,0.587-1.899c0.037-0.389-0.032-0.787,0-1.177
		c0.05-0.558,0.12-1.117,0.241-1.663c0.074-0.335,0.287-0.638,0.391-0.97c0.119-0.377,0.188-0.771,0.279-1.174l0.158,0.019
		c-0.064-0.174-0.121-0.323-0.177-0.473l0.106,0.057c0.188-0.413,0.369-0.825,0.559-1.235c0.227-0.493,0.44-0.99,0.694-1.469
		C97.283-2,97.467-2.133,97.63-2.256c0.026-0.021,0.186,0.083,0.244,0.157c0.304,0.382,0.501,0.39,0.848,0.084
		c0.115-0.103,0.324-0.098,0.647-0.188C99.12-2.28,99.024-2.31,98.931-2.337c0.394-0.665,0.479-1.348,0.071-2.013
		c0.084-0.05,0.271-0.143,0.267-0.161c-0.067-0.188-0.172-0.362-0.265-0.54H99.2c-0.146-1.724,0.271-2.125,1.877-1.767
		c0.068-0.155,0.146-0.317,0.149-0.332c-0.356-0.71-0.788-1.296-0.934-1.946c-0.083-0.372,0.354-0.832,0.451-1.277
		c0.099-0.44,0.491-0.615,0.677-0.961c0.007-0.013-0.109-0.091-0.181-0.147c0.13-0.192,0.731-0.157,0.356-0.704h0.378
		c0-0.13-0.054-0.305,0.009-0.395c0.308-0.433,0.65-0.837,0.961-1.268c0.064-0.091,0-0.301,0.071-0.354
		c0.534-0.402,0.646-1.036,0.917-1.58c0.192-0.386,0.465-0.56,0.906-0.389c0.112,0.043,0.253,0.006,0.475,0.006
		c-0.128-0.188-0.219-0.307-0.291-0.436c-0.28-0.5-0.128-0.869,0.385-1.132c0.209-0.107,0.395-0.332,0.506-0.545
		c0.236-0.448,0.408-0.935,0.729-1.008c1.156-1.25,2.334-2.047,3.793-2.512c-0.063-0.08-0.132-0.157-0.14-0.167
		c0.474-0.141,0.979-0.298,1.489-0.438c0.445-0.123,0.896-0.236,1.353-0.328c0.284-0.059,0.579-0.058,0.866-0.1
		c0.831-0.122,1.108,0.097,1.297,1.119c0.119,0.66,0.264,1.334,0.236,1.996c-0.048,1.109-0.188,2.217-0.359,3.314
		c-0.105,0.676-0.268,1.362-0.539,1.986c-0.284,0.651-0.73,1.229-1.1,1.846c-0.161,0.271-0.286,0.563-0.453,0.83
		c-0.339,0.535-0.602,1.174-1.064,1.562c-0.627,0.525-0.813,1.145-0.755,1.858c0.059,0.672-0.461,0.997-0.731,1.458
		c-0.222,0.368-0.58,0.658-0.898,0.96c-0.223,0.211-0.503,0.362-0.715,0.581c-0.278,0.282-0.564,0.58-0.754,0.923
		c-0.152,0.275-0.35,0.684,0.265,0.764c0.429,0.057,0.853,0.188,1.281,0.221c0.506,0.039,0.733-0.204,0.645-0.675
		c-0.104-0.548,0.18-0.784,0.639-0.907c1.029-0.273,2.062-0.552,3.146-0.452c0.708,0.063,1.394,0.218,1.821,0.866
		c0.434,0.656,0.65,1.39,0.5,2.166c-0.264,1.365-0.563,2.722-0.9,4.07c-0.123,0.486-0.427,0.921-0.616,1.393
		c-0.445,1.113-0.883,2.229-1.312,3.349c-0.433,1.114-0.89,2.22-1.275,3.35c-0.256,0.751-0.416,1.535-0.596,2.312
		c-0.104,0.446,0.107,0.747,0.55,0.635c0.859-0.217,1.689-0.555,2.526-0.855c0.134-0.046,0.242-0.159,0.371-0.226
		c0.929-0.471,1.673-1.161,2.328-1.959c0.239-0.294,0.541-0.542,0.768-0.843c0.231-0.309,0.434-0.648,0.599-0.997
		c0.237-0.498,0.388-1.045,0.657-1.521c0.36-0.635,0.604-1.28,0.624-2.015c0.001-0.052,0.282-0.146,0.434-0.138
		c0.567,0.021,0.763-0.273,0.813-0.802c0.054-0.526,0.21-1.042,0.29-1.567c0.059-0.382,0.055-0.774,0.091-1.158
		c0.024-0.264,0.072-0.526,0.104-0.75h1.264c-0.062-0.461-0.188-0.915-0.171-1.362c0.031-0.672,0.104-1.367,0.639-1.875
		c0.21-0.2,0.462-0.358,0.697-0.531c0.215-0.157,0.433-0.311,0.649-0.463c0.043-0.028,0.094-0.072,0.138-0.071
		c1.235,0.031,2.473-0.335,3.714,0.078c0.362,0.119,0.414,0.326,0.337,0.562c-0.221,0.678-0.487,1.339-0.754,2
		c-0.373,0.941-0.758,1.879-1.153,2.812c-0.183,0.427-0.432,0.824-0.615,1.251c-0.362,0.824-0.688,1.667-1.056,2.49
		c-0.103,0.232-0.288,0.43-0.459,0.677c-0.065-0.063-0.19-0.141-0.262-0.251c-0.368-0.599-0.452-0.646-0.887-0.162
		c-0.413,0.46-0.953,0.523-1.485,0.614c-0.771,0.132-0.796,0.146-0.603,0.913c0.041,0.167,0.023,0.35,0.04,0.573
		c0.454,0,0.874,0.01,1.294-0.001c0.683-0.02,1.271,0.584,1.25,1.257c-0.019,0.462,0.016,0.927,0.015,1.393
		c-0.002,0.95-0.41,1.767-0.904,2.537c-0.218,0.342-0.536,0.615-0.777,0.941c-0.065,0.088-0.072,0.292-0.018,0.389
		c0.409,0.708,1.396,0.789,1.99,0.243c0.298-0.261,0.654-0.447,1.039-0.542c0.966-0.243,1.956-0.385,2.925-0.625
		c0.868-0.215,1.693-0.438,1.748-1.646c0.037-0.84,0.367-1.669,0.564-2.503c0.158-0.685,0.354-1.36,0.471-2.051
		c0.149-0.878,0.186-1.777,0.371-2.647c0.183-0.853,0.478-1.681,0.752-2.512c0.198-0.602,0.408-1.204,0.68-1.775
		c0.265-0.553,0.613-1.065,0.911-1.602c0.023-0.041-0.07-0.146-0.061-0.125c0.878-0.852,1.697-1.743,2.854-2.191
		c1.231-0.478,2.462-0.745,3.825-0.309c-0.208,0.485-0.409,0.927-0.586,1.38c-0.19,0.487-0.354,0.987-0.535,1.479
		c-0.252,0.677-0.527,1.349-0.769,2.03c-0.432,1.223-0.836,2.456-1.266,3.678c-0.292,0.832-0.549,1.686-0.934,2.475
		c-0.346,0.709-0.854,1.337-1.263,2.02c-0.228,0.383-0.178,0.767-0.01,1.205c0.281,0.72,0.433,1.49,0.199,2.27
		c-0.083,0.278-0.045,0.462,0.232,0.631c1.12,0.678,2.295,1.106,3.635,0.916c0.138-0.02,0.285,0.056,0.431,0.062
		c0.581,0.026,0.694-0.163,0.789-0.716c0.075-0.445,0.274-0.91,0.549-1.269c0.489-0.648,1.095-1.21,1.605-1.844
		c0.106-0.138,0.037-0.433,0.023-0.654c-0.079-1.353-0.214-2.702-0.231-4.057c-0.015-0.912,0.051-1.843,0.23-2.735
		c0.175-0.875,0.332-1.757,0.604-2.627c0.213-0.688,0.632-1.272,0.794-1.973c0.085-0.362,0.353-0.736,0.642-0.984
		c0.986-0.852,1.913-1.827,3.316-1.994c0.237-0.027,0.506-0.166,0.692-0.09c0.233,0.094,0.496,0.322,0.575,0.552
		c0.413,1.208,0.548,2.44,0.354,3.728c-0.247,1.644-0.715,3.205-1.455,4.681c-0.479,0.95-1.034,1.858-1.56,2.786
		c-0.385,0.682-0.755,1.372-1.166,2.036c-0.2,0.325-0.044,0.534,0.182,0.674c0.543,0.337,1.124,0.615,1.675,0.94
		c0.72,0.426,1.276,0.144,1.814-0.359c0.424-0.395,0.886-0.753,1.337-1.107c0.332-0.259,0.757-0.361,1.018-0.657
		c0.221-0.252,0.349-0.609,0.455-0.938c0.309-0.957,0.561-1.931,0.882-2.883c0.217-0.625,0.473-1.236,0.769-1.829
		c0.266-0.534,0.566-1.057,0.908-1.547c0.472-0.68,0.974-1.338,1.503-1.972c0.284-0.336,0.674-0.582,1-0.882
		c0.273-0.251,0.506-0.563,0.804-0.778c0.636-0.459,1.292-0.891,1.965-1.294c0.414-0.248,0.877-0.417,1.32-0.616
		c0.346-0.153,0.686-0.325,1.042-0.442c1.053-0.35,2.097-0.75,3.178-0.987c0.88-0.193,1.354,0.04,2.085,0.81
		c0.477,0.497,1.033,0.91,1.646,1.224c0.265,0.136,0.729-0.026,1.067-0.146c0.512-0.178,1.093-0.335,1.465-0.689
		c0.583-0.553,1.275-0.816,1.971-1.128c0.44-0.199,0.933-0.185,1.186,0.117c0.194,0.234,0.188,0.764,0.082,1.103
		c-0.281,0.896-0.657,1.765-1.007,2.641c-0.312,0.78-0.684,1.54-0.947,2.334c-0.462,1.394-0.857,2.809-1.294,4.208
		c-0.288,0.921-0.253,1.884-0.406,2.813c-0.141,0.847,0.022,1.626,0.089,2.43c0.045,0.539,0.317,0.714,0.858,0.609
		c0.446-0.086,0.896-0.349,1.317-0.302c1.597,0.18,1.776-1.182,2.393-2.075c0.604-0.888,1.197-1.786,1.801-2.672
		c0.568-0.83,1.175-1.637,1.702-2.49c0.108-0.179,0.036-0.575-0.095-0.779c-0.828-1.281-0.779-2.647-0.528-4.069
		c0.175-0.997,0.593-1.885,1.146-2.7c0.697-1.033,1.667-1.75,2.926-1.963c0.381-0.064,0.795,0.005,1.185,0.062
		c0.342,0.051,0.886,1.038,0.87,1.478c-0.037,1.047-0.072,2.09-0.39,3.104c-0.114,0.365-0.139,0.761-0.2,1.136
		c1.17,0.38,1.97-0.138,2.697-0.837c0.47-0.451,0.94-0.907,1.357-1.406c0.527-0.632,0.996-1.317,1.502-1.97
		c0.627-0.806,1.473-1.144,2.478-1.049c0.229,0.021,0.448,0.174,0.536,0.212c-0.345,1.116-0.673,2.12-0.958,3.137
		c-0.123,0.442-0.33,0.664-0.813,0.642c-0.84-0.04-0.795-0.026-0.745,0.751c0.071,1.091-0.131,2.15-0.504,3.184
		c-0.26,0.721-0.513,1.449-0.704,2.189c-0.204,0.776-0.359,1.564-0.47,2.359c-0.12,0.921,0.173,1.727,0.828,2.41
		c0.194,0.204,0.38,0.509,0.394,0.777c0.045,0.895,0.045,1.796-0.012,2.689c-0.016,0.252-0.227,0.617-0.441,0.711
		c-0.866,0.376-1.75,0.771-2.668,0.961c-1.526,0.317-2.563-0.313-3.224-1.772c-0.449-1.003-0.596-2.025-0.619-3.059
		c-0.021-0.91,0.188-1.832,0.366-2.736c0.149-0.768,0.349-1.533,0.624-2.264c0.255-0.682,0.64-1.313,0.96-1.953
		c-0.344-0.588-0.758-0.106-0.979,0.013c-0.85,0.465-1.711,0.958-2.425,1.602c-0.956,0.863-1.819,1.84-2.64,2.835
		c-0.906,1.103-1.664,2.325-2.576,3.422c-1.301,1.566-2.664,3.107-4.479,4.101c-1.197,0.657-2.483,1.14-3.901,1.173
		c-1.026,0.024-1.764-0.409-2.021-1.417c-0.265-1.044-0.429-2.11-0.676-3.158c-0.074-0.298-0.225-0.573-0.437-0.795
		c-0.221-0.228-0.477-0.176-0.688,0.116c-0.611,0.839-1.018,1.836-1.89,2.479c-0.459,0.34-0.896,0.669-1.541,0.454
		c-0.341-0.112-0.531,0.072-0.495,0.487c0.037,0.447-0.021,0.906-0.562,1.067c-0.126,0.038-0.271,0.006-0.47,0.006l0.146-0.852
		c0.062-0.369,0.072-0.717-0.395-0.838c-0.515-0.133-0.604,0.293-0.762,0.597c-0.255,0.492-0.388,1.069-0.724,1.49
		c-0.812,1.013-2.101,0.836-2.943,0.331c-0.979-0.586-1.84-1.353-2.534-2.259c-0.424-0.547-0.849-1.092-1.291-1.66
		c-0.846,0.574-1.729,0.742-2.649,0.79c-0.272,0.015-0.539,0.142-0.812,0.149c-0.375,0.012-0.792,0.056-1.121-0.082
		c-1.339-0.562-2.719-0.689-4.131-0.46c-0.163,0.025-0.296,0.382-0.398,0.604c-0.219,0.461-0.417,0.93-0.604,1.402
		c-0.448,1.136-1.476,1.586-2.479,1.994c-0.683,0.273-1.439,0.396-2.178,0.489c-1.034,0.13-2.082,0.147-3.118,0.258
		c-0.602,0.063-1.041-0.134-1.286-0.704c-0.193-0.453-0.373-0.914-0.577-1.36c-0.275-0.609-0.883-0.646-1.646-0.157
		c-0.938,0.609-1.889,1.196-2.854,1.761c-0.708,0.411-1.428,0.836-2.19,1.108c-0.917,0.339-1.912,0.41-2.868,0.204
		c-0.444-0.099-0.871-0.317-1.317-0.369c-0.906-0.101-1.273-0.753-1.508-1.462c-0.248-0.757-0.367-1.557-0.509-2.342
		c-0.104-0.598-0.246-0.642-0.791-0.417c-1.353,0.554-2.37,1.571-3.533,2.389c-1.141,0.802-2.342,1.497-3.803,1.517
		c-0.617,0.008-0.65,0.067-0.534,0.807c-0.705,0.188-1.422,0.379-2.138,0.567c-0.775,0.202-1.195-0.321-1.574-0.833
		c-0.759-1.023-1.284-2.132-1.219-3.462c0.018-0.35-0.158-0.704-0.18-1.06c-0.016-0.246,0.057-0.507,0.143-0.742
		c0.193-0.546,0.578-1.078,0.59-1.621c0.017-0.696,0.752-1.154,0.499-1.881c0.578-0.301,0.648-0.934,0.823-1.439
		c0.285-0.826,1.061-1.368,1.18-2.295c0.052-0.382,0.45-0.722,0.732-1.022c0.066-0.232,0.096-0.641,0.209-0.665
		c0.401-0.09,0.262-0.417,0.34-0.617c0.284-0.732,0.538-1.479,0.775-2.229c0.155-0.494-0.1-0.806-0.607-0.741
		c-2.028,0.253-3.843,0.914-5.356,2.405c-0.854,0.836-1.723,1.656-2.229,2.707c-0.65,1.343-1.403,2.66-1.671,4.172
		c-0.104,0.587-0.43,1.132-0.568,1.718c-0.322,1.371-0.586,2.758-0.894,4.136c-0.122,0.542-0.28,1.074-0.457,1.603
		c-0.188,0.567-0.751,0.33-1.131,0.435c-0.824,0.226-1.69,0.301-2.524,0.502c-1.125,0.271-1.516-0.072-1.366-1.199
		c0.063-0.479-0.022-0.977-0.002-1.462c0.01-0.158,0.146-0.31,0.231-0.478c0-0.228-0.018-0.5,0.004-0.771
		c0.041-0.519-0.227-0.796-0.689-0.592c-0.924,0.408-1.851,0.827-2.714,1.349c-1.469,0.887-2.966,1.725-4.591,2.258
		c-1.352,0.44-2.771,0.679-4.206,0.428c-0.236-0.042-0.484-0.288-0.632-0.506c-0.238-0.352-0.548-0.481-0.933-0.443
		c-0.309,0.029-0.604,0.177-0.912,0.2c-0.465,0.032-1.079,0.186-1.37-0.044c-0.424-0.333-0.591-0.964-0.453-1.579
		c0.137-0.616,0.239-1.268,0.015-1.854c-0.11-0.292-0.489-0.557-0.806-0.666c-0.172-0.061-0.465,0.227-0.762,0.39
		c-0.234-0.151-0.371-0.411-0.399-0.835c-0.044-0.618,0.13-1.231,0.082-1.793c-0.044-0.497,0.129-1.062-0.269-1.607
		c-0.382-0.519-0.241-0.616-1.001-0.77c-0.075-0.014-0.135-0.111-0.2-0.17c-0.021,0.113-0.014,0.237-0.061,0.338
		c-0.258,0.571-0.531,1.116-1.045,1.538c-0.656,0.542-1.23,1.185-1.873,1.75c-0.225,0.197-0.538,0.295-0.814,0.433
		c-0.335,0.166-0.712,0.275-1.007,0.496c-0.786,0.587-1.553,1.104-2.628,0.896c-0.656-0.126-1.264,0.19-1.833,0.521
		c-1.004,0.578-2.088,0.934-3.236,0.689c-0.598-0.127-1.14-0.519-1.709-0.783c-0.32-0.15-0.661-0.262-0.966-0.44
		c-0.45-0.263-0.686,0.009-0.989,0.279c-0.322,0.29-0.737,0.09-1.101,0.02c-0.296-0.058-0.574-0.207-0.869-0.274
		c-0.102-0.023-0.278,0.052-0.331,0.138c-0.07,0.116-0.125,0.354-0.063,0.417c0.489,0.513,1.005,0.996,1.52,1.48
		c0.376,0.356,0.765,0.701,1.143,1.057c0.065,0.062,0.089,0.17,0.158,0.224c0.936,0.714,1.856,1.444,2.819,2.122
		c1.032,0.722,2.083,1.418,3.149,2.088c0.68,0.428,1.383,0.819,2.096,1.191c0.949,0.489,1.909,0.961,2.877,1.414
		c0.847,0.399,1.689,0.817,2.566,1.146c0.911,0.341,1.854,0.601,2.794,0.862c1.474,0.418,2.955,0.821,4.438,1.206
		c0.518,0.135,1.052,0.204,1.582,0.291c0.606,0.103,1.216,0.219,1.828,0.276c1.213,0.122,2.431,0.211,3.646,0.31
		c0.707,0.058,1.415,0.104,2.121,0.157c0.638,0.051,1.272,0.123,1.911,0.152c1.273,0.06,2.549,0.104,3.825,0.135
		c0.962,0.021,1.925-0.009,2.888,0.017c1.074,0.028,2.146,0.108,3.221,0.141c1.577,0.045,3.154,0.099,4.731,0.084
		c0.924-0.011,1.848-0.145,2.77-0.228c0.296-0.024,0.59-0.072,0.885-0.108c0.854-0.107,1.71-0.226,2.566-0.317
		c1.659-0.179,3.323-0.333,4.981-0.518c1.699-0.192,3.4-0.411,5.102-0.617c1.155-0.139,2.309-0.276,3.46-0.424
		c1.142-0.146,2.28-0.298,3.418-0.461c1.07-0.151,2.134-0.348,3.205-0.475c1.117-0.133,2.243-0.187,3.354-0.319
		c0.827-0.103,1.645-0.294,2.469-0.417c1.163-0.17,2.332-0.301,3.497-0.462c1.354-0.189,2.701-0.41,4.058-0.59
		c0.727-0.096,1.465-0.105,2.193-0.193c0.829-0.103,1.647-0.27,2.476-0.368c1.291-0.153,2.584-0.262,3.874-0.413
		c1.065-0.124,2.127-0.312,3.194-0.418c1.091-0.113,2.188-0.162,3.285-0.237c0.184-0.014,0.387,0.024,0.548-0.045
		c1.004-0.431,2.056-0.398,3.119-0.409c0.711-0.007,1.425-0.136,2.131-0.245c1.26-0.191,2.486-0.545,3.789-0.537
		c1.072,0.003,2.147-0.233,3.226-0.354c0.579-0.068,1.16-0.121,1.742-0.159c0.977-0.058,1.957-0.078,2.933-0.139
		c0.833-0.051,1.662-0.171,2.494-0.197c0.943-0.035,1.888,0.017,2.832,0c1.378-0.021,2.758-0.104,4.133-0.094
		c1.104,0.008,2.2,0.145,3.304,0.168c0.963,0.02,1.931-0.054,2.895-0.055c0.548-0.001,1.094,0.082,1.643,0.09
		c0.896,0.013,1.799-0.029,2.693,0c1.071,0.037,2.145,0.123,3.217,0.196c0.953,0.067,1.908,0.122,2.858,0.233
		c1.725,0.198,3.446,0.438,5.17,0.651c1.203,0.148,2.411,0.255,3.613,0.424c1.316,0.184,2.634,0.393,3.938,0.64
		c2.144,0.407,4.271,0.888,6.416,1.273c1.881,0.334,3.78,0.596,5.674,0.862c1.12,0.158,2.245,0.282,3.373,0.372
		c1.382,0.106,2.774,0.081,4.146,0.254c0.711,0.086,1.389,0.463,2.074,0.726c0.066,0.025,0.151,0.2,0.129,0.238
		c-0.061,0.084-0.18,0.179-0.272,0.179c-0.56-0.002-1.119-0.02-1.678-0.051c-0.678-0.035-1.357-0.159-2.03-0.123
		c-1.957,0.102-3.911,0.283-5.865,0.396c-1.631,0.098-3.275,0.225-4.881-0.104c-0.616-0.139-1.26-0.106-1.859,0.093
		c-0.481,0.151-1.015,0.2-1.521,0.202c-0.468,0.002-0.918-0.032-1.144-0.644c-0.174-0.475-0.77-0.441-1.178-0.366
		c-0.765,0.141-1.501,0.419-2.257,0.607c-0.225,0.057-0.434,0.188-0.646-0.247c-0.193-0.39-0.791-0.695-1.265-0.803
		c-0.775-0.175-1.599-0.181-2.399-0.217c-0.874-0.039-1.75-0.049-2.625-0.03c-1.071,0.026-2.146,0.101-3.219,0.152
		c-0.534,0.023-1.07,0.021-1.604,0.059c-1.896,0.132-3.796,0.264-5.688,0.421c-2.199,0.183-4.396,0.398-6.596,0.579
		c-0.28,0.025-0.569-0.098-0.858-0.125c-0.462-0.041-0.943-0.159-1.377-0.069c-0.913,0.187-1.814,0.304-2.75,0.318
		c-1.292,0.02-2.584,0.151-3.873,0.253c-1.608,0.124-3.222,0.271-4.83,0.399c-1.532,0.126-3.067,0.228-4.598,0.377
		c-1.62,0.158-3.232,0.373-4.854,0.542c-1.913,0.196-3.828,0.362-5.743,0.554c-2.067,0.206-4.134,0.451-6.206,0.631
		c-1.025,0.09-2.064,0.05-3.101,0.109c-1.451,0.083-2.897,0.19-4.348,0.313c-1.221,0.107-2.438,0.231-3.654,0.372
		c-0.751,0.086-1.494,0.235-2.246,0.312c-1.073,0.108-2.153,0.155-3.229,0.271c-1.183,0.127-2.357,0.314-3.539,0.461
		c-1.042,0.129-2.087,0.237-3.13,0.348c-1.317,0.141-2.638,0.368-3.957,0.383c-1.717,0.019-3.438-0.104-5.15-0.232
		c-0.547-0.043-0.967-0.016-1.19,0.53c-0.442,1.082-1.441,0.951-2.317,1.073c-0.498,0.072-1.009,0.088-1.512,0.124
		c-0.396,0.028-0.798,0.066-1.196,0.08c-1.532,0.042-3.069,0.059-4.604,0.125c-1.568,0.068-3.135,0.229-4.704,0.263
		c-1.697,0.035-3.395-0.037-5.092-0.051c-1.137-0.01-2.275,0.011-3.412-0.006c-1.772-0.023-3.548-0.066-5.322-0.099
		c-0.909-0.017-1.82,0.002-2.729-0.042c-1.516-0.079-3.048-0.073-4.535-0.325c-2.271-0.382-4.512-0.941-6.76-1.447
		c-0.887-0.2-1.777-0.41-2.635-0.706c-1.012-0.353-1.988-0.802-2.981-1.204c-0.24-0.1-0.488-0.182-0.732-0.271
		c-0.712-0.27-1.433-0.516-2.134-0.812c-1.46-0.622-2.923-1.246-4.356-1.927c-0.41-0.195-0.711-0.609-1.092-0.882
		c-0.89-0.638-1.815-1.227-2.692-1.883c-0.477-0.356-0.85-0.848-1.317-1.209c-0.521-0.403-1.126-0.705-1.647-1.107
		c-0.645-0.498-1.235-1.061-1.863-1.577c-0.375-0.311-0.789-0.571-1.162-0.882c-0.743-0.625-1.469-1.267-2.196-1.907
		c-0.567-0.498-1.144-0.99-1.687-1.516c-0.327-0.316-0.59-0.697-0.889-1.043c-0.193-0.226-0.406-0.434-0.6-0.658
		c-0.069-0.083-0.104-0.197-0.161-0.294c-0.039-0.066-0.074-0.165-0.134-0.183c-0.741-0.223-0.918-0.978-1.385-1.458
		C50.086,10.125,50.075,9.981,50.055,9.924L50.055,9.924z M158.106,8.271c-0.359,0.737-0.229,1.353,0.159,1.91
		c0.106,0.15,0.366,0.309,0.53,0.287c1.278-0.18,2.483-0.702,3.489-1.512c0.938-0.748,1.785-1.567,2.418-2.622
		c0.449-0.751,0.947-1.459,1.187-2.314c0.221-0.795,0.522-1.575,0.677-2.381c0.147-0.768,0.232-1.565,0.191-2.343
		c-0.038-0.764-0.272-1.517-0.415-2.274c-0.236-1.268-0.976-1.659-2.114-1.143c-0.313,0.145-0.676,0.318-0.994,0.282
		c-0.473-0.053-0.621,0.224-0.797,0.519c-0.323,0.547-0.629,1.105-0.944,1.656c-0.334,0.581-0.72,1.136-0.996,1.741
		c-0.509,1.108-0.952,2.243-1.42,3.369c-0.444,1.075-0.875,2.154-1.325,3.226c-0.241,0.57-0.513,1.122-1.278,1.108
		c-0.197-0.002-0.427,0.029-0.585,0.131c-0.308,0.2-0.574,0.462-0.86,0.7c0.354,0.044,0.703,0.129,1.053,0.119
		c0.24-0.008,0.475-0.175,0.719-0.229C157.2,8.412,157.607,8.356,158.106,8.271L158.106,8.271z M107.728-5.768
		c0.295-0.558,0.44-1.258,1.146-1.575c0.061-0.025,0.139-0.068,0.155-0.121c0.369-1.036,1.009-1.916,1.608-2.817
		c0.221-0.329,0.526-0.671,0.574-1.035c0.09-0.704,0.771-1.179,0.679-1.927c0.527-0.177,0.117-0.729,0.421-1.041
		c0.188-0.19,0.192-0.562,0.263-0.857c0.062-0.25,0.027-0.552,0.159-0.75c0.152-0.231,0.312-0.394,0.086-0.653
		c-0.027-0.038-0.034-0.139-0.01-0.18c0.391-0.593-0.202-0.974-0.331-1.449c-0.012-0.046-0.347-0.086-0.444-0.012
		c-0.313,0.224-0.598,0.485-0.848,0.778c-0.219,0.266-0.357,0.592-0.562,0.937c0.021,0.004-0.115-0.051-0.142-0.021
		c-2.354,3.127-4.062,6.62-5.646,10.172c-0.499,1.117-0.813,2.314-1.213,3.476l0.136,0.172c0.396-0.138,0.861-0.188,1.171-0.435
		c0.581-0.461,1.083-1.024,1.595-1.567c0.289-0.31,0.521-0.677,0.81-0.992C107.411-5.749,107.596-5.736,107.728-5.768z
		 M103.205-10.059l0.455-1.438c-1.07,0.078-0.521,1.038-1.165,1.337C102.844-10.109,103.009-10.085,103.205-10.059z"/>
	<path d="M207.78-13.66c-0.094,0.52-0.129,0.938-0.245,1.333c-0.423,1.424-0.868,2.84-1.335,4.25
		c-0.111,0.328-0.398,0.592-0.564,0.907c-0.181,0.345,0.012,0.697,0.394,0.703c0.545,0.008,1.087-0.042,1.632-0.057
		c0.365-0.012,0.731-0.001,1.131-0.001l-0.877,0.982c-0.472,0.525-0.437,0.811,0.138,1.18c0.135,0.087,0.268,0.182,0.535,0.364
		c-1.752,0.271-3.423,0.438-4.545,1.936c-1.075,1.428-1.16,3.097-1.368,4.787c0.277,0.133,0.582,0.247,0.848,0.422
		c0.083,0.055,0.13,0.301,0.081,0.402c-0.376,0.766-0.784,1.516-1.173,2.275c-0.319,0.632-0.149,1.407,0.402,1.874
		c0.211,0.177,0.43,0.345,0.64,0.521c0.561,0.466,1.222,0.452,1.818,0.22c0.86-0.336,1.722-0.701,2.402-1.397
		c0.433-0.438,0.992-0.749,1.474-1.145c0.603-0.496,1.169-1.034,1.775-1.525c0.117-0.096,0.352-0.073,0.525-0.054
		c0.031,0.003,0.1,0.276,0.051,0.375c-0.812,1.594-1.706,3.137-2.909,4.474c-1.014,1.115-2.235,2.021-3.598,2.667
		c-1.388,0.668-2.897,1.057-4.473,1.065c-0.182,0.002-0.374,0.135-0.537,0.096c-0.208-0.048-0.521-0.172-0.563-0.326
		c-0.301-1.078-1.276-1.257-2.121-1.267c-0.197-0.002-0.485-0.091-0.578-0.237c-0.231-0.384-0.415-0.795-0.547-1.224
		c-0.041-0.126,0.092-0.408,0.22-0.473c0.407-0.204,0.479-0.569,0.578-0.942c0.107-0.407,0.269-0.804,0.327-1.216
		c0.028-0.18-0.083-0.51-0.209-0.554c-0.251-0.09-0.538-0.431-0.844-0.006c-0.455,0.632-0.9,1.287-1.452,1.829
		c-0.792,0.775-1.651,1.506-2.913,1.214c-0.197-0.047-0.387-0.137-0.569-0.204c0.229-1.171,1.057-1.792,1.824-2.443
		c1.048-0.888,2.11-1.753,3.165-2.631c0.662-0.549,0.672-0.884,0.136-1.524c-0.309-0.365-0.542-0.788-0.14-1.16
		c0.443-0.256,0.896-0.501,1.322-0.784c0.088-0.058,0.159-0.293,0.113-0.378c-0.419-0.782-0.275-1.627-0.319-2.453
		c-0.027-0.526-0.062-1.045-0.671-1.257c-0.118-0.042-0.248-0.1-0.364-0.086c-0.373,0.048-0.418-0.204-0.354-0.435
		c0.189-0.729,0.433-1.441,0.488-2.204c0.01-0.096,0.321-0.205,0.51-0.245c0.898-0.199,1.704-0.528,2.176-1.405
		c0.491-0.918,0.874-1.876,1.15-2.88c0.123-0.448,0.249-0.895,0.396-1.334c0.025-0.073,0.177-0.095,0.253-0.16
		c0.114-0.099,0.282-0.204,0.306-0.33c0.179-1.025,0.277-1.132,1.202-1.218c1.109-0.102,2.216-0.237,3.328-0.318
		C206.459-13.696,207.078-13.66,207.78-13.66L207.78-13.66z M224.22-0.125c-0.356-0.592-1.045-0.56-1.658-0.659
		c-0.741-0.117-1.494-0.159-2.237-0.261c-0.284-0.039-0.592-0.102-0.827-0.247c-0.923-0.562-1.695-0.254-2.39,0.393
		c-0.841,0.788-1.695,1.568-2.444,2.437c-0.566,0.655-0.971,1.45-1.464,2.167c-0.108,0.157-0.303,0.258-0.546,0.458
		c0.089-0.729,0.103-1.389,0.262-2.011c0.152-0.597,0.374-1.209,0.714-1.72c0.604-0.913,1.296-1.776,1.999-2.618
		c0.502-0.6,1.084-1.133,1.636-1.69c0.646-0.648,1.298-1.291,1.892-1.881c0.945,0.227,1.793,0.461,2.653,0.63
		c0.893,0.178,1.792,0.317,2.696,0.417c0.435,0.046,0.883-0.072,1.326-0.064c0.477,0.005,0.952,0.087,1.428,0.102
		c0.738,0.021,1.477,0.028,2.215,0.021c0.777-0.004,0.819,0.038,0.488,0.68c-0.155,0.309-0.335,0.604-0.538,0.882
		c-0.805,1.079-1.599,2.167-2.445,3.211c-0.568,0.7-1.229,1.328-1.838,1.997c-0.938,1.031-1.864,2.075-2.804,3.104
		c-0.521,0.572-1.073,1.116-1.6,1.688c-0.15,0.166-0.386,0.44-0.336,0.563c0.079,0.196,0.348,0.379,0.567,0.448
		c1.049,0.321,2.102,0.637,3.167,0.892c1.087,0.266,2.185,0.487,3.29,0.661c1.028,0.157,2.038-0.076,2.937-0.562
		c0.813-0.438,1.55-1.023,2.413-1.61c0.033,0.264,0.079,0.585,0.114,0.909c0.164,1.563-0.911,2.384-1.939,3.233
		c-0.775,0.641-1.557,1.278-2.303,1.956c-0.242,0.222-0.384,0.165-0.613,0.027c-0.317-0.186-0.651-0.34-0.998-0.461
		c-0.334-0.11-0.521,0.041-0.521,0.416c-0.007,0.467-0.216,0.613-0.688,0.468c-0.973-0.301-1.953-0.574-2.94-0.819
		c-0.392-0.096-0.797-0.128-1.199-0.097c-0.594,0.048-0.749-0.259-0.752-0.755c-0.002-0.179,0.01-0.357,0.011-0.537
		c0.008-1.091-0.629-1.438-1.686-0.889c0.064,0.143,0.157,0.278,0.193,0.431c0.044,0.177,0.118,0.454,0.035,0.532
		c-0.175,0.167-0.469,0.351-0.677,0.316c-0.976-0.166-1.812,0.222-2.661,0.576c-0.573,0.239-1.126,0.548-1.944,0.395
		c0.24-0.461,0.405-0.903,0.679-1.266c0.644-0.849,1.354-1.646,2.008-2.488c0.367-0.479,0.647-1.024,1.007-1.512
		c0.437-0.589,0.913-1.144,1.366-1.717c0.756-0.96,1.49-1.938,2.263-2.883c0.613-0.75,1.278-1.458,1.904-2.198
		C223.708,0.608,223.948,0.244,224.22-0.125L224.22-0.125z M249.573,16.934c-1.51-0.085-2.912-0.521-4.138-1.455
		c-0.582-0.44-1.149-0.9-1.721-1.357c-0.294-0.237-0.394-0.501-0.158-0.854c0.484-0.731,0.934-1.488,1.425-2.216
		c0.266-0.388,0.821-0.424,1.172-0.079c0.828,0.811,1.575,1.714,2.47,2.44c0.705,0.579,1.547,1.024,2.388,1.388
		c0.623,0.269,1.753-0.44,2.044-1.144c0.209-0.508,0.505-1.014,0.562-1.544c0.07-0.66,0.069-1.386-0.145-2
		c-0.24-0.695-0.732-1.308-1.146-1.938c-0.765-1.162-1.564-2.299-2.312-3.471c-0.363-0.569-0.811-0.733-1.479-0.459
		c-0.899,0.37-1.522,1.022-2.094,1.792c-0.649,0.896-1.36,1.746-2.127,2.545c-0.47,0.48-1.14,0.711-1.806,0.622
		c-0.112-0.014-0.312-0.419-0.259-0.494c0.724-1.024,1.502-2.011,2.229-3.03c0.451-0.631,0.81-1.329,1.267-1.953
		c0.492-0.669,1.036-1.303,1.583-1.928c0.697-0.797,1.436-1.562,2.137-2.358c0.541-0.613,1.358-0.877,1.994-0.352
		c0.652,0.542,1.455,0.908,2.103,1.455c0.304,0.255,0.471,0.739,0.568,1.151c0.337,1.371,1.054,2.545,1.737,3.754
		c0.668,1.175,1.226,2.416,1.764,3.657c0.141,0.327,0.11,0.784,0.018,1.145c-0.325,1.287-0.772,2.557-1.67,3.558
		c-1.426,1.602-3.122,2.793-5.345,3.007C250.287,16.853,249.939,16.894,249.573,16.934z M238.09-5.257
		c0-0.297-0.057-0.663,0.009-1.003c0.271-1.415,0.441-2.829,0.283-4.274c-0.08-0.72-0.082-1.449-0.158-2.17
		c-0.051-0.477-0.172-0.945-0.271-1.479c0.561-0.103,1.062-0.191,1.562-0.284c0.419-0.079,0.846-0.129,1.247-0.261
		c0.327-0.108,0.827,0.019,0.908,0.361c0.196,0.828,0.343,1.658,0.145,2.521c-0.08,0.345-0.021,0.721-0.028,1.084
		c-0.041,1.628-0.552,3.134-1.593,4.348C239.718-5.855,239.122-5.167,238.09-5.257z"/>
</g>
</svg>
