<svg xmlns="http://www.w3.org/2000/svg" width="81.889" height="80" viewBox="0 0 81.889 80"><path d="M66.524 34.637a8.996 8.996 0 0 0 0 12.728 8.998 8.998 0 0 0 12.727-.002 8.997 8.997 0 0 0 0-12.729 8.977 8.977 0 0 0-6.362-2.636 8.982 8.982 0 0 0-6.365 2.639M34.52 2.486c-3.448 3.248-3.508 8.472-.198 11.8h-.012c5.559 5.604 5.559 14.312 0 19.916h.012c-3.239 3.26-3.241 8.337 0 11.595h-.012c5.559 5.605 5.559 14.312-.002 19.918h.014c-3.308 3.328-3.25 8.551.198 11.799 3.517 3.314 9.214 3.314 12.733 0 3.445-3.248 3.509-8.471.195-11.799h.016c-5.562-5.605-5.562-14.312 0-19.918h-.016c3.242-3.258 3.242-8.333 0-11.595h.012c-5.559-5.604-5.559-14.312 0-19.916h-.012c3.312-3.328 3.25-8.552-.195-11.8A9.273 9.273 0 0 0 40.887 0a9.26 9.26 0 0 0-6.367 2.486"/><defs><filter id="a" filterUnits="userSpaceOnUse" x="48.164" y="16.458" width="17.076" height="50.332"><feColorMatrix values="1 0 0 0 0 0 1 0 0 0 0 0 1 0 0 0 0 0 1 0"/></filter></defs><mask maskUnits="userSpaceOnUse" x="48.164" y="16.458" width="17.076" height="50.332" id="b"><path fill="#FFF" d="M50.664 19.038c-3.272 3.374-3.328 8.796-.19 12.25h-.013c5.273 5.815 5.273 14.856 0 20.673h.013c-3.138 3.455-3.078 8.875.19 12.246 3.188 3.336 8.479 3.457 11.813.266.09-.086.18-.174.266-.266 3.271-3.371 3.324-8.791.188-12.246h.012c-5.274-5.816-5.274-14.857 0-20.673h-.016c3.141-3.454 3.086-8.876-.188-12.25a8.38 8.38 0 0 0-6.04-2.58c-2.184 0-4.367.86-6.039 2.58h.004z" filter="url(#a)"/></mask><path mask="url(#b)" d="M50.664 19.038c-3.272 3.374-3.328 8.796-.19 12.25h-.013c5.273 5.815 5.273 14.856 0 20.673h.013c-3.138 3.455-3.078 8.875.19 12.246 3.188 3.336 8.479 3.457 11.813.266.09-.086.18-.174.266-.266 3.271-3.371 3.324-8.791.188-12.246h.012c-5.274-5.816-5.274-14.857 0-20.673h-.016c3.141-3.454 3.086-8.876-.188-12.25a8.38 8.38 0 0 0-6.04-2.58c-2.184 0-4.367.86-6.039 2.58"/><path d="M18.519 18.46c-3.446 3.22-3.506 8.39-.196 11.682h-.012c5.559 5.548 5.559 14.168 0 19.717h.012c-3.308 3.295-3.25 8.466.198 11.681 3.517 3.28 9.218 3.28 12.733 0 3.446-3.215 3.504-8.386.196-11.681h.012c-5.559-5.549-5.559-14.169 0-19.714h-.015c3.311-3.295 3.253-8.467-.193-11.683A9.312 9.312 0 0 0 24.887 16a9.314 9.314 0 0 0-6.368 2.46"/><g transform="translate(0 16)"><defs><filter id="c" filterUnits="userSpaceOnUse" x="0" y="16.084" width="16.969" height="16.964"><feColorMatrix values="1 0 0 0 0 0 1 0 0 0 0 0 1 0 0 0 0 0 1 0"/></filter></defs><mask maskUnits="userSpaceOnUse" x="0" y="16.084" width="16.969" height="16.964" id="d"><path fill="#FFF" d="M8.427 16.084a8.538 8.538 0 0 1 6.042 14.576c-3.336 3.336-8.743 3.34-12.08.004A8.54 8.54 0 0 1 8.427 16.08v.004z" filter="url(#c)"/></mask><path d="M2.387 18.584A8.543 8.543 0 1 0 14.466 30.66h.003a8.538 8.538 0 0 0-6.04-14.576 8.51 8.51 0 0 0-6.04 2.5"/></g></svg>
