<?xml version="1.0" encoding="utf-8"?>
<!-- Generator: Adobe Illustrator 16.0.0, SVG Export Plug-In . SVG Version: 6.00 Build 0)  -->
<!DOCTYPE svg PUBLIC "-//W3C//DTD SVG 1.1//EN" "http://www.w3.org/Graphics/SVG/1.1/DTD/svg11.dtd">
<svg version="1.1" id="Layer_1" xmlns="http://www.w3.org/2000/svg" xmlns:xlink="http://www.w3.org/1999/xlink" x="0px" y="0px"
	 width="199.943px" height="46.014px" viewBox="0 0 199.943 46.014" enable-background="new 0 0 199.943 46.014"
	 xml:space="preserve">
<path d="M38.542,24.39c3.979-1.764,6.538-4.777,6.538-9.27c0-6.254-4.153-10.013-10.123-10.013H24.95v40.948h11.715
	c6.479,0,10.231-4.95,10.231-10.808C46.897,29.737,43.83,25.927,38.542,24.39z M27.622,25.866h7.054c6.084,0,9.554,4.553,9.554,9.5
	c0,5.974-4.663,8.417-8.021,8.417H27.62V25.866H27.622L27.622,25.866z M27.62,7.386h6.086c6.827,0,8.703,3.186,8.703,7.563
	c0,5.229-3.646,8.645-10.641,8.645h-4.149L27.62,7.386z M70.174,15.348c-8.868,0-12.229,8.188-12.229,15.812
	c0,7.617,3.242,15.521,12.059,15.521c3.87,0,7.28-1.189,10.747-2.728l-1.139-2.503c-2.843,1.708-6.085,2.954-9.494,2.954
	c-4.608,0-8.986-2.392-9.496-12.969h20.586C81.206,18.988,75.236,15.348,70.174,15.348z M69.834,17.623
	c5.914,0,8.979,6.37,8.7,11.544H60.62C60.444,23.877,63.973,17.623,69.834,17.623z M107.132,15.348
	c-4.778,0-9.557,4.438-10.688,8.926h-0.114L95.25,15.63h-2.504c1.021,5.12,1.189,10.236,1.189,15.354V46.06h2.672V33.66
	c0-11.72,5.856-16.038,10.187-16.038c4.663,0,4.663,4.772,4.663,8.244v20.188h2.67V24.616
	C114.125,20.068,112.59,15.348,107.132,15.348z M137.613,15.347c-5.464,0-11.489,3.924-11.489,15.638
	c0,12.285,6.424,15.698,11.487,15.698h0.004c5.062,0,11.545-3.47,11.545-15.698c-0.002-12.279-6.543-15.638-11.545-15.638H137.613z
	 M137.613,17.622c7.391,0,8.87,7.506,8.87,13.357c0,5.864-1.479,13.428-8.87,13.428c-7.337,0-8.813-7.508-8.813-13.427
	C128.797,25.128,130.276,17.623,137.613,17.622z M197.883,39.063c-1.312,2.848-3.64,5.349-6.993,5.349
	c-3.697,0-4.777-2.73-4.777-5.633V18.25h11.032v-2.276H186.11V6.306h-2.676v9.668h-24.356v2.275h5.021v27.81h2.673V18.25h16.667
	v18.937c0,7.618,3.475,9.497,7.337,9.497c4.494,0,7.354-1.896,9.67-6.995L197.883,39.063L197.883,39.063z"/>
<path d="M174.416,2.093l-1.309-1.423l-7.963,5.973l-7.962-5.973l-1.31,1.423l9.271,8.074L174.416,2.093L174.416,2.093z
	 M20.113,5.252l-3.705,9.81L12.3,5.25H11.64l4.437,10.543l-0.743,1.91c-0.095,0.257-0.224,0.501-0.384,0.724
	c-0.066,0.081-0.141,0.155-0.221,0.222c-0.073,0.062-0.155,0.114-0.242,0.154c-0.168,0.084-0.376,0.14-0.614,0.158
	c-0.245,0.017-0.54,0.028-0.904,0.028h-0.104v0.615h0.104c0.312,0,0.615-0.013,0.9-0.027c0.283-0.023,0.556-0.08,0.798-0.187
	c0.246-0.102,0.474-0.257,0.672-0.466c0.065-0.068,0.125-0.16,0.187-0.246c0.029-0.044,0.063-0.077,0.095-0.125
	c0.085-0.146,0.163-0.31,0.233-0.493l4.915-12.812h-0.652v0.003H20.113z M8.667,6.69c-0.11-0.147-0.25-0.271-0.38-0.404
	c-0.307-0.33-0.662-0.61-1.055-0.83c-0.573-0.31-1.235-0.46-1.974-0.46c-1.134,0-2.085,0.3-2.821,0.897
	C2.265,6.035,2.104,6.192,1.956,6.358C1.598,6.752,1.317,7.21,1.129,7.708V1.166H0.5v9.205c0,0.368,0.02,0.716,0.055,1.047
	c0.104,0.99,0.37,1.822,0.804,2.521c0.178,0.285,0.354,0.533,0.544,0.752c0.188,0.223,0.384,0.41,0.593,0.58
	c0.741,0.599,1.676,0.897,2.771,0.897c0.71,0,1.354-0.143,1.918-0.415c0.562-0.28,1.05-0.67,1.448-1.167
	c0.409-0.524,0.715-1.122,0.9-1.76c0.21-0.678,0.314-1.42,0.314-2.22c0-0.733-0.104-1.45-0.306-2.133
	c-0.184-0.64-0.479-1.243-0.873-1.783L8.667,6.69z M2.257,6.892c0.75-0.854,1.762-1.283,3.007-1.283
	c0.688,0,1.285,0.147,1.786,0.445c0.508,0.3,0.918,0.69,1.229,1.153C8.6,7.679,8.84,8.221,8.995,8.809
	c0.312,1.214,0.305,2.488-0.021,3.698c-0.155,0.568-0.406,1.105-0.74,1.592c-0.319,0.45-0.737,0.814-1.229,1.08
	c-0.488,0.265-1.073,0.4-1.738,0.4c-0.663,0-1.253-0.139-1.762-0.4C3,14.919,2.558,14.551,2.212,14.101
	c-0.365-0.472-0.642-1.008-0.812-1.58c-0.189-0.618-0.284-1.263-0.279-1.91C1.12,8.994,1.498,7.741,2.257,6.892z"/>
</svg>
