<svg version="1.1" id="Layer_1" xmlns="http://www.w3.org/2000/svg" xmlns:xlink="http://www.w3.org/1999/xlink" x="0px" y="0px" width="224.162px" height="12.671px" viewBox="0 14.608 224.162 12.671" enable-background="new 0 14.608 224.162 12.671" xml:space="preserve" fill="#000">
<g>
	<path d="M0,26.97V15.034h8.59v2.169H2.254v3.263h5.994v2.083H2.254v4.422H0z"></path>
	<path d="M27.59,26.97h-2.681l-3.484-3.996h-2.169v3.996h-2.254v-11.97c1.896,0,3.792,0.017,5.687,0.017
		c2.818,0.017,4.304,1.896,4.304,3.963c0,1.638-0.751,3.296-3.022,3.758l3.621,4.079V26.97z M19.255,17.117v3.827h3.433
		c1.435,0,2.05-0.957,2.05-1.914c0-0.956-0.632-1.913-2.05-1.913H19.255z"></path>
	<path d="M43.841,24.718h-6.25l-1.025,2.253h-2.442l5.363-11.953h2.459l5.362,11.953h-2.459L43.841,24.718z M40.716,17.528
		l-2.22,5.09h4.44L40.716,17.528z"></path>
	<path d="M65.404,18.313l-3.895,5.192h-0.443l-3.809-5.209v8.693h-2.254V15.034H57.6l3.74,5.141l3.74-5.141h2.579V26.99h-2.254
		V18.313z"></path>
	<path d="M85.534,26.97h-8.949c0-3.977,0-7.974,0-11.953h8.949v2.186h-6.711v2.751h6.472v2.1h-6.472v2.697h6.711V26.97z"></path>
	<path d="M101.854,17.904c-0.41-0.685-1.538-1.332-2.835-1.332c-1.674,0-2.476,0.7-2.476,1.588c0,1.042,1.229,1.332,2.664,1.502
		c2.494,0.309,4.816,0.956,4.816,3.81c0,2.662-2.357,3.808-5.021,3.808c-2.443,0-4.321-0.751-5.209-2.937l1.879-0.974
		c0.529,1.315,1.913,1.894,3.364,1.894c1.417,0,2.75-0.494,2.75-1.791c0-1.129-1.179-1.591-2.767-1.76
		c-2.442-0.289-4.696-0.938-4.696-3.621c0-2.459,2.424-3.466,4.627-3.482c1.861,0,3.792,0.528,4.697,2.372L101.854,17.904z"></path>
	<path d="M133.412,20.892c0.051,3.021-1.793,6.078-5.979,6.078c-1.469,0-3.226,0-4.694,0V15.017c1.469,0,3.226,0,4.694,0
		C131.533,15.017,133.36,17.937,133.412,20.892z M124.976,24.804h2.458c2.718,0,3.792-1.983,3.741-3.93
		c-0.051-1.861-1.144-3.722-3.741-3.722h-2.458V24.804z"></path>
	<path d="M150.653,26.97h-8.949c0-3.977,0-7.974,0-11.953h8.949v2.186h-6.711v2.751h6.472v2.1h-6.472v2.697h6.711V26.97z"></path>
	<path d="M167.725,24.718h-6.251l-1.025,2.253h-2.441l5.362-11.953h2.46l5.361,11.953h-2.459L167.725,24.718z M164.599,17.528
		l-2.22,5.09h4.44L164.599,17.528z"></path>
	<path d="M181.482,15.017v9.87h6.147v2.083h-8.401V15.017H181.482z"></path>
	<path d="M204.975,26.97h-8.949c0-3.977,0-7.974,0-11.953h8.949v2.186h-6.713v2.751h6.474v2.1h-6.474v2.697h6.713V26.97z"></path>
	<path d="M224.162,26.97h-2.681l-3.485-3.996h-2.169v3.996h-2.253v-11.97c1.894,0,3.791,0.017,5.688,0.017
		c2.817,0.017,4.303,1.896,4.303,3.963c0,1.638-0.751,3.296-3.023,3.758l3.621,4.079V26.97z M215.827,17.117v3.827h3.435
		c1.433,0,2.047-0.957,2.047-1.914c0-0.956-0.631-1.913-2.047-1.913H215.827z"></path>
</g>
</svg>