<?xml version="1.0" encoding="utf-8"?>
<!-- Generator: Adobe Illustrator 16.0.0, SVG Export Plug-In . SVG Version: 6.00 Build 0)  -->
<!DOCTYPE svg PUBLIC "-//W3C//DTD SVG 1.1//EN" "http://www.w3.org/Graphics/SVG/1.1/DTD/svg11.dtd">
<svg version="1.1" id="Layer_1" xmlns="http://www.w3.org/2000/svg" xmlns:xlink="http://www.w3.org/1999/xlink" x="0px" y="0px"
	 width="325px" height="26px" viewBox="0 0 325 26" enable-background="new 0 0 325 26" xml:space="preserve">
<title>LOGO</title>
<g>
	<path d="M0,21.999l2.806-3.931c2.019,2.102,4.81,3.285,7.725,3.275c2.842,0,4.226-1.31,4.226-2.693
		c0-4.295-13.992-1.348-13.992-10.482c0-4.04,3.498-7.389,9.22-7.389c3.862,0,7.068,1.165,9.473,3.385L16.58,7.95
		c-1.967-1.82-4.59-2.656-7.068-2.656c-2.223,0-3.462,0.982-3.462,2.438c0,3.858,13.956,1.274,13.956,10.336
		c0,4.44-3.17,7.789-9.73,7.789C5.612,25.855,2.26,24.291,0,21.999 M37.389,25.42V1.143h17.199v4.55H42.563v5.132h11.77v4.55h-11.77
		v5.495h12.025v4.55H37.389z M89.28,25.42L77.692,9.588V25.42h-5.174V1.143h5.32l11.26,15.25V1.144h5.174V25.42H89.28z
		 M111.328,21.999l2.806-3.931c2.019,2.102,4.811,3.285,7.725,3.275c2.842,0,4.227-1.31,4.227-2.693
		c0-4.295-13.992-1.348-13.992-10.482c0-4.04,3.497-7.389,9.219-7.389c3.862,0,7.069,1.165,9.474,3.385l-2.88,3.785
		c-1.967-1.82-4.59-2.656-7.068-2.656c-2.223,0-3.462,0.982-3.462,2.438c0,3.858,13.956,1.274,13.956,10.337
		c0,4.439-3.17,7.787-9.729,7.787C116.94,25.855,113.588,24.291,111.328,21.999 M167.629,13.3c0-4.55-2.915-7.97-7.398-7.97
		c-4.481,0-7.36,3.42-7.36,7.97c0,4.513,2.879,7.97,7.36,7.97C164.714,21.27,167.629,17.812,167.629,13.3 M147.551,13.3
		c0-7.316,5.356-12.557,12.68-12.557c7.362,0,12.718,5.24,12.718,12.557c0,7.316-5.356,12.558-12.718,12.558
		C152.907,25.857,147.551,20.616,147.551,13.3 M190.48,25.42V1.143h5.174V20.87h10.275v4.55H190.48z M241.352,13.3
		c0-4.55-2.916-7.97-7.397-7.97s-7.361,3.42-7.361,7.97c0,4.513,2.88,7.97,7.361,7.97S241.352,17.812,241.352,13.3 M221.273,13.3
		c0-7.316,5.355-12.557,12.681-12.557c7.36,0,12.717,5.24,12.717,12.557c0,7.316-5.356,12.558-12.717,12.558
		C226.629,25.857,221.273,20.616,221.273,13.3 M263.035,13.3c0-7.68,5.83-12.557,12.936-12.557c5.065,0,8.235,2.548,10.057,5.423
		l-4.301,2.33c-1.092-1.712-3.17-3.167-5.756-3.167c-4.41,0-7.615,3.385-7.615,7.971s3.205,7.97,7.615,7.97
		c2.15,0,4.19-0.945,5.174-1.855l0.006-7.459h5.172l-0.002,9.352c-2.479,2.767-5.94,4.586-10.35,4.586
		C268.865,25.893,263.035,20.943,263.035,13.3 M310.408,25.42v-9.936l-9.365-14.34h5.903l6.049,9.754l5.976-9.755h5.903
		l-9.292,14.339v9.938H310.408z"/>
</g>
</svg>
