<?xml version="1.0" encoding="utf-8"?>
<!-- Generator: Adobe Illustrator 16.0.0, SVG Export Plug-In . SVG Version: 6.00 Build 0)  -->
<!DOCTYPE svg PUBLIC "-//W3C//DTD SVG 1.1//EN" "http://www.w3.org/Graphics/SVG/1.1/DTD/svg11.dtd">
<svg version="1.1" id="Layer_1" xmlns="http://www.w3.org/2000/svg" xmlns:xlink="http://www.w3.org/1999/xlink" x="0px" y="0px"
	 width="127.75px" height="38.708px" viewBox="-0.016 2.828 127.75 38.708" enable-background="new -0.016 2.828 127.75 38.708"
	 xml:space="preserve">
<title>Logo</title>
<g>
	<g>
		<path d="M8.375,7.555c-0.116,0.66-0.233,1.089-0.31,1.36c-0.04,0.274-0.196,0.896-0.468,1.946
			c-0.467,2.024-1.128,4.24-1.634,6.109c-0.35,1.36-0.583,2.1-1.011,3.617c0.506-0.467,0.972-0.584,1.595-0.7
			c1.984-0.194,4.357,1.206,4.551,3.306c0.156,1.673-0.739,3.773-1.556,5.214c-1.128,2.022-1.984,3.306-2.567,3.657
			c-1.245,0.816-2.607,0.193-2.802-0.117c-0.7-0.389-2.178-2.84-0.816-3.424c0.35,0,0.389,0.506,0.427,0.699
			c0.117,0.195,0.156,0.273,0.468,0.273c0.505-0.078,1.75-2.256,2.061-3.112c0.506-1.05,1.011-2.1,1.207-4.124
			c-1.518,1.129-3.308,4.008-3.774,5.059c-0.273,0.621-0.39,0.699-0.817,0.894c-0.584,0.195-1.05,0.117-1.673-0.351
			c-0.856-0.621-1.401-2.334-1.245-3.5l0.31-1.362l1.869-6.302l1.322-4.59l1.05-3.463c0.273-0.739,0.545-1.712,0.896-2.879
			C5.574,5.376,5.73,4.832,5.886,4.17C6.08,3.509,6.235,3.12,6.391,3.003c0.35-0.194,0.584-0.194,1.012-0.156
			c1.206,0.311,1.633,1.09,1.439,2.374L8.375,7.555z M32.849,7.555c-0.116,0.66-0.234,1.089-0.311,1.36
			c-0.04,0.274-0.195,0.896-0.468,1.946c-0.466,2.024-1.128,4.24-1.634,6.109c-0.349,1.36-0.583,2.1-1.011,3.617
			c0.506-0.467,0.973-0.584,1.595-0.7c1.985-0.194,4.358,1.206,4.552,3.306c0.156,1.673-0.739,3.773-1.556,5.214
			c-1.128,2.022-1.984,3.306-2.568,3.657c-1.244,0.816-2.606,0.193-2.8-0.117c-0.7-0.389-2.18-2.84-0.817-3.424
			c0.35,0,0.388,0.506,0.427,0.699c0.117,0.195,0.156,0.273,0.467,0.273c0.506-0.078,1.751-2.256,2.062-3.112
			c0.506-1.05,1.011-2.1,1.206-4.124c-1.517,1.129-3.307,4.008-3.774,5.059c-0.272,0.621-0.388,0.699-0.816,0.894
			c-0.584,0.195-1.05,0.117-1.673-0.351c-0.856-0.621-1.401-2.334-1.245-3.5l0.31-1.362l1.868-6.302l1.323-4.59l1.05-3.463
			c0.273-0.739,0.545-1.712,0.895-2.879c0.117-0.389,0.273-0.933,0.428-1.595c0.195-0.661,0.35-1.05,0.506-1.167
			c0.35-0.194,0.583-0.194,1.011-0.156c1.206,0.311,1.634,1.09,1.44,2.374L32.849,7.555z"/>
		<g transform="translate(45.717 11.246)">
			<defs>
				<filter id="Adobe_OpacityMaskFilter" filterUnits="userSpaceOnUse" x="0.393" y="0.12" width="16.072" height="30.17">
					<feColorMatrix  type="matrix" values="1 0 0 0 0  0 1 0 0 0  0 0 1 0 0  0 0 0 1 0"/>
				</filter>
			</defs>
			<mask maskUnits="userSpaceOnUse" x="0.393" y="0.12" width="16.072" height="30.17" id="d">
				<g filter="url(#Adobe_OpacityMaskFilter)">
					<path id="c" fill="#FFFFFF" d="M0.393,0.121h16.072v30.17H0.393V0.121z"/>
				</g>
			</mask>
			<path mask="url(#d)" d="M10.435,20.117c-0.273,0.156-0.622,0.234-1.128,0.234c-0.467-0.039-0.973-0.272-1.557-0.779
				c-0.583-0.506-0.817-1.244-0.7-2.139c0.428-1.051,1.517-1.168,2.062-1.791c2.062-1.867,3.073-4.162,3.424-5.99
				c-0.74,0.039-1.556,0.35-2.451,0.933c-0.778,0.622-1.985,1.945-2.918,3.657c-0.272,0.506-0.623,1.595-0.973,2.84
				C6,17.667,5.844,18.289,5.65,18.911L5.066,21.44l-0.622,2.763c-0.428,1.673-0.623,3.034-0.973,4.63
				c-0.038,0.35-0.116,1.245-0.894,1.439c-1.284,0.154-1.947-0.662-2.102-1.401c-0.272-0.857,0.195-3.425,0.468-4.125
				c0.427-1.244,0.972-3.267,1.672-6.03c1.44-5.562,1.907-8.324,2.335-9.88c0.427-1.712,0.855-3.619,1.167-5.058
				c0.194-0.739,0.35-1.556,0.544-2.373C6.856,0.587,7.167,0.159,7.595,0.12c0.972,0.117,1.362,0.7,1.517,1.167
				c0.195,0.467,0.35,1.478,0.156,3.19C9.112,6.189,8.606,7.628,8.334,9.379c0.43-0.645,0.94-1.233,1.518-1.75
				c0.739-0.623,1.71-1.245,2.295-1.245c2.139-0.117,3.812,1.011,4.318,3.968c0,3.151-2.996,8.092-6.03,9.764"/>
		</g>
		<path d="M74.593,20.82c-1.012,0.429-2.023-0.077-1.829-1.127c-2.529,0.427-4.863,5.057-5.524,6.614
			c-0.467,1.049-1.05,2.567-1.323,3.5c-0.117,0.43-0.195,0.896-0.155,1.362c0.038,0.429-0.156,0.7-0.661,0.817
			c-0.35,0.037-1.013,0.037-1.596-0.428c-0.272-0.272-1.089-1.479-1.089-2.568c0-0.817,0.389-1.79,0.545-2.45
			c0.194-0.935,0.778-3.113,1.011-5.291c0.04-0.973,0.156-2.14,0.272-3.269c0.04-0.35,0.078-0.816,0.04-1.4
			c0-0.583,0.116-0.895,0.31-0.933c1.673-0.273,2.179,0.583,2.373,1.09c0.312,0.854,0.35,1.205,0.273,3.072
			c0.506-0.817,0.933-1.206,1.595-1.673c0.661-0.505,1.556-0.933,2.179-0.933c1.439,0,2.956,0.544,3.734,1.75
			c0.155,0.311,0.273,0.467,0.31,1.128C75.021,20.431,74.865,20.665,74.593,20.82 M110.344,29.301
			c-0.66,1.051-1.517,1.713-2.49,1.946c-0.35,0.038-0.621,0.077-1.205-0.078c-0.659-0.297-1.254-0.72-1.75-1.245
			c-0.896-1.05-1.519-3.111-1.519-5.252l-1.399,1.79l-1.906,2.528c-0.506,0.623-1.129,1.439-1.44,1.789
			c-0.428,0.585-0.972,0.934-1.79,0.934c-0.816,0.117-2.84-1.205-2.955-1.906c-0.117-2.449,0.543-5.252,0.777-6.808
			c-0.693,0.739-1.344,1.519-1.945,2.334c-1.361,1.751-1.984,2.801-2.295,3.269c-0.506,0.662-1.518,2.334-2.101,2.918
			c-0.312,0.311-0.817,0.582-1.128,0.582c-1.168-0.115-1.596-0.972-1.674-2.14c-0.155-1.36,0.468-3.579,1.091-5.562l0.972-3.035
			l0.661-2.1c0.272-0.74,0.428-1.868,0.623-2.685c0.31-1.478,1.089-2.256,1.594-2.023c0.817,0,1.79,0.817,1.79,1.79
			c0,1.673-0.506,2.918-0.777,3.734c-0.312,1.012-0.623,1.829-0.701,2.412c-0.077,0.506,0.701-0.544,1.945-2.1
			c0.74-0.973,1.674-2.295,2.1-2.762c0.43-0.468,0.974-0.39,1.597-0.273c0.429,0.117,1.44,0.428,2.022,1.362
			c0.855,1.206,0.545,1.634,0.311,2.995L98.323,25.1c-0.039,0.233,0,0.312,0.077,0.272c0.078-0.078,0.856-1.244,2.334-3.501
			c1.479-2.257,2.841-3.229,4.125-2.957c1.361,0.584,1.439,0.973,1.828,1.323c0.895,0.74,0.117,3.697,0.039,5.096
			c-0.039,0.778,0,1.946,0.039,2.257c0.116,1.051,0.271,1.518,1.555,1.4c0.272-0.038,1.051-0.233,2.646-1.129
			C110.818,28.365,110.608,28.849,110.344,29.301"/>
		<path d="M114.391,26.773c1.674-1.83,3.735-4.709,4.59-7.898C116.725,20.354,114.896,24.75,114.391,26.773 M122.717,32.18
			c-2.335,0.195-4.591-1.867-4.98-6.146c-0.155,0.117-2.139,4.746-4.084,5.72c-0.506,0.194-1.09,0.194-1.4,0.194
			c-1.322,0-2.296-1.557-2.296-3.034c0-1.013,0.467-2.296,0.623-2.685c1.011-2.763,2.995-5.641,5.019-8.326
			c1.09-1.206,2.022-2.14,3.461-2.373c0.43-0.078,1.09,0.038,1.246,0.545c0.233,0.661,0,1.283-0.468,1.672
			c0.856,0.117,1.79,0.273,2.452,0.74c0.544,0.583,0.622,1.128,0.622,1.75c0,0.895-0.39,2.256-0.778,3.502
			c-0.401,1.3-0.713,2.626-0.934,3.968c-0.116,0.66-0.116,1.439,0.117,2.139c1.127,1.129,5.758-2.021,6.418-2.373
			C126.49,29.34,125.596,31.947,122.717,32.18 M17.906,20.354c-0.583,0.778-1.634,2.606-2.217,4.357
			c0.661-0.662,1.245-1.4,1.751-2.141c0.583-0.777,1.517-1.905,1.634-3.5C18.567,19.537,18.179,19.965,17.906,20.354 M22.38,30.273
			c-1.205,0.934-1.867,1.285-2.217,1.479c-0.156,0.078-0.544,0.195-1.129,0.391c-0.583,0.193-0.972,0.271-1.244,0.271
			c-0.895,0-0.934,0.039-1.906-0.312c-1.051-0.427-1.401-0.737-2.18-1.556c-0.816-1.05-1.05-1.75-1.166-2.84
			c-0.156-1.672,0.116-2.45,0.233-3.112c0.156-0.66,0.7-2.412,1.284-3.618c0.39-0.817,0.934-1.75,1.634-2.762
			c1.4-2.023,2.684-2.84,3.345-2.957c0.895,0,2.14-0.155,3.23,3.074c0.388,1.984,0,2.879-0.39,3.58
			c-0.389,0.659-0.972,1.516-1.789,2.489c-0.817,0.972-1.478,1.711-2.062,2.217c-1.089,0.934-1.44,1.244-1.906,1.712
			c0.155,0.31,0.544,0.817,1.128,1.09c0.35,0.155,0.856,0.194,1.128,0.194c0.428,0,0.74-0.04,1.362-0.194
			c0.506-0.155,1.323-0.507,2.45-1.09l2.335-1.245c0.233-0.117,0.428-0.156,0.583-0.193C24.443,28.134,23.625,29.302,22.38,30.273
			 M16.339,12.636c-0.018,0.167,0.022,0.335,0.113,0.476c0.098,0.17,0.266,0.328,0.504,0.476c0.238,0.148,0.541,0.223,0.91,0.223
			c0.39,0,0.893-0.108,1.51-0.325c0.614-0.215,1.211-0.476,1.787-0.78c0.523-0.271,1.023-0.586,1.494-0.942
			c0.423-0.325,0.633-0.606,0.633-0.845c0-0.216-0.054-0.443-0.162-0.682C23.02,10,22.883,9.776,22.722,9.571
			c-0.154-0.198-0.341-0.368-0.552-0.503c-0.206-0.13-0.396-0.195-0.569-0.195c-0.108,0-0.373,0.186-0.795,0.557
			c-0.422,0.372-0.89,0.776-1.397,1.213c-0.509,0.438-1.024,0.842-1.544,1.214c-0.52,0.37-0.93,0.557-1.234,0.557
			C16.458,12.414,16.361,12.487,16.339,12.636 M42.38,20.354c-0.583,0.778-1.634,2.606-2.217,4.357
			c0.661-0.662,1.244-1.4,1.75-2.141c0.584-0.777,1.518-1.905,1.634-3.5C43.041,19.537,42.653,19.965,42.38,20.354 M46.854,30.273
			c-1.206,0.934-1.867,1.285-2.217,1.479c-0.156,0.078-0.545,0.195-1.129,0.391c-0.583,0.193-0.972,0.271-1.244,0.271
			c-0.895,0-0.934,0.039-1.907-0.312c-1.05-0.427-1.4-0.737-2.178-1.556c-0.817-1.05-1.05-1.75-1.167-2.84
			c-0.156-1.672,0.116-2.45,0.233-3.112c0.155-0.66,0.7-2.412,1.284-3.618c0.39-0.817,0.933-1.75,1.634-2.762
			c1.4-2.023,2.684-2.84,3.345-2.957c0.895,0,2.14-0.155,3.23,3.074c0.388,1.984,0,2.879-0.39,3.58
			c-0.527,0.878-1.126,1.71-1.79,2.489c-0.816,0.972-1.478,1.711-2.061,2.217c-1.09,0.934-1.44,1.244-1.906,1.712
			c0.155,0.31,0.544,0.817,1.128,1.09c0.35,0.155,0.855,0.194,1.128,0.194c0.428,0,0.739-0.04,1.362-0.194
			c0.505-0.155,1.323-0.507,2.45-1.09l2.335-1.245c0.233-0.117,0.427-0.156,0.583-0.193C48.916,28.134,48.099,29.302,46.854,30.273
			 M40.813,12.636c-0.022,0.148,0.016,0.307,0.113,0.476c0.098,0.17,0.266,0.328,0.504,0.476c0.238,0.148,0.541,0.223,0.91,0.223
			c0.39,0,0.893-0.108,1.51-0.325c0.614-0.215,1.211-0.476,1.786-0.78c0.524-0.271,1.024-0.586,1.495-0.942
			c0.423-0.325,0.633-0.606,0.633-0.845c0-0.216-0.054-0.443-0.162-0.682c-0.108-0.237-0.245-0.46-0.406-0.666
			c-0.154-0.198-0.34-0.368-0.552-0.503c-0.206-0.13-0.396-0.195-0.569-0.195c-0.108,0-0.374,0.186-0.795,0.557
			c-0.423,0.372-0.89,0.776-1.398,1.213c-0.508,0.438-1.023,0.842-1.543,1.214c-0.52,0.37-0.93,0.557-1.234,0.557
			C40.932,12.414,40.834,12.487,40.813,12.636 M79.727,20.354c-0.583,0.778-1.633,2.606-2.217,4.357
			c0.661-0.662,1.245-1.4,1.75-2.141c0.584-0.777,1.518-1.905,1.635-3.5C80.389,19.537,79.999,19.965,79.727,20.354 M84.201,30.273
			c-1.206,0.934-1.867,1.285-2.217,1.479c-0.156,0.078-0.545,0.195-1.129,0.391c-0.583,0.193-0.972,0.271-1.244,0.271
			c-0.895,0-0.934,0.039-1.906-0.312c-1.051-0.427-1.402-0.737-2.179-1.556c-0.817-1.05-1.05-1.75-1.167-2.84
			c-0.156-1.672,0.116-2.45,0.233-3.112c0.155-0.66,0.7-2.412,1.284-3.618c0.389-0.817,0.933-1.75,1.634-2.762
			c1.4-2.023,2.684-2.84,3.345-2.957c0.895,0,2.14-0.155,3.23,3.074c0.39,1.984,0,2.879-0.39,3.58
			c-0.527,0.877-1.125,1.71-1.789,2.489c-0.817,0.972-1.478,1.711-2.062,2.217c-1.09,0.934-1.44,1.244-1.906,1.712
			c0.156,0.31,0.545,0.817,1.128,1.09c0.35,0.155,0.856,0.194,1.128,0.194c0.428,0,0.74-0.04,1.362-0.194
			c0.506-0.155,1.323-0.507,2.45-1.09l2.335-1.245c0.233-0.117,0.427-0.156,0.583-0.193C86.264,28.134,85.445,29.302,84.201,30.273
			 M78.16,12.636c-0.022,0.148,0.016,0.307,0.114,0.476c0.097,0.17,0.265,0.328,0.503,0.476c0.238,0.148,0.541,0.223,0.91,0.223
			c0.39,0,0.893-0.108,1.51-0.325c0.614-0.215,1.212-0.476,1.787-0.78c0.524-0.271,1.024-0.586,1.495-0.942
			c0.422-0.325,0.633-0.606,0.633-0.845c0-0.216-0.055-0.443-0.162-0.682C84.84,10,84.704,9.776,84.543,9.571
			c-0.154-0.198-0.34-0.368-0.552-0.503c-0.206-0.13-0.396-0.195-0.57-0.195c-0.107,0-0.373,0.186-0.794,0.557
			c-0.423,0.372-0.889,0.776-1.397,1.213c-0.509,0.438-1.024,0.842-1.543,1.214c-0.52,0.37-0.932,0.557-1.235,0.557
			C78.278,12.414,78.182,12.487,78.16,12.636"/>
	</g>
</g>
</svg>
