<?xml version="1.0" encoding="utf-8"?>
<!-- Generator: Adobe Illustrator 16.0.0, SVG Export Plug-In . SVG Version: 6.00 Build 0)  -->
<!DOCTYPE svg PUBLIC "-//W3C//DTD SVG 1.1//EN" "http://www.w3.org/Graphics/SVG/1.1/DTD/svg11.dtd">
<svg version="1.1" id="Layer_1" xmlns="http://www.w3.org/2000/svg" xmlns:xlink="http://www.w3.org/1999/xlink" x="0px" y="0px"
	 width="149px" height="38px" viewBox="0 0 149 38" enable-background="new 0 0 149 38" xml:space="preserve">
<path fill="none" d="M-885.5-56h1920V94h-1920V-56z"/>
<g>
	<polygon fill="none" points="62.466,34.223 66.728,34.223 64.597,30.514 	"/>
	<polygon fill="none" points="107.659,16.073 117.357,16.073 112.509,6.541 	"/>
	<polygon points="16.737,10.736 19.145,10.736 22.757,3.721 19.693,3.721 	"/>
	<path d="M38.222,0c-7.679,0-13.906,5.73-13.906,12.796c0,7.065,6.228,12.796,13.906,12.796c7.678,0,13.906-5.73,13.906-12.796
		C52.128,5.73,45.901,0,38.222,0z M38.222,23.239c-5.767,0-10.445-4.677-10.445-10.443S32.454,2.354,38.222,2.354
		S48.667,7.03,48.667,12.796S43.989,23.239,38.222,23.239z"/>
	<polygon points="89.852,0.224 87.43,3.017 95.236,0.224 	"/>
	<polygon points="98.782,21.698 83.666,21.698 83.666,14.646 94.887,14.646 94.887,12.247 83.666,12.247 83.666,5.847 98.686,5.847 
		98.686,3.574 80.516,3.574 80.516,24.018 98.782,24.018 	"/>
	<polygon points="6.607,3.574 4,3.574 4,24.018 22.057,24.018 22.057,21.779 6.607,21.779 	"/>
	<path d="M58.537,15.401h8.347l6.226,8.576h3.707l-6.319-8.703c2.949-0.567,5.18-2.957,5.18-5.797c0-3.259-2.937-5.925-6.526-5.925
		H55.696v20.425h2.841V15.401z M58.688,5.96h10.197l0.227,0.006l0.192,0.016l0.188,0.026l0.184,0.035l0.18,0.045l0.177,0.054
		l0.172,0.063l0.167,0.071l0.162,0.079l0.158,0.087l0.153,0.095l0.146,0.101l0.141,0.108l0.135,0.114l0.128,0.12l0.121,0.124
		l0.114,0.128l0.107,0.133l0.101,0.137l0.093,0.14l0.085,0.143l0.078,0.146l0.071,0.148l0.062,0.148l0.055,0.15l0.048,0.152
		l0.041,0.153l0.033,0.155l0.026,0.156l0.019,0.159l0.011,0.161l0.004,0.164L72.46,9.642l-0.01,0.16L72.431,9.96l-0.026,0.156
		l-0.033,0.155l-0.041,0.153l-0.048,0.151l-0.055,0.149l-0.062,0.148l-0.071,0.148l-0.078,0.146l-0.085,0.143l-0.093,0.139
		l-0.101,0.138l-0.107,0.133l-0.114,0.128l-0.121,0.124l-0.128,0.12l-0.135,0.114l-0.141,0.108l-0.146,0.101l-0.153,0.095
		l-0.158,0.087l-0.162,0.079l-0.167,0.071l-0.172,0.063l-0.177,0.054l-0.18,0.045l-0.184,0.036l-0.188,0.026l-0.192,0.016
		l-0.221,0.006H58.688V5.96z"/>
	<rect x="85.533" y="29.352" width="1.467" height="1.485"/>
	<path d="M97.326,33.111c-0.442-0.146-1.252-0.313-2.436-0.508c-1.184-0.191-1.912-0.379-2.195-0.565
		c-0.283-0.185-0.428-0.418-0.428-0.705c0-0.327,0.203-0.608,0.604-0.842c0.405-0.234,1.045-0.351,1.926-0.351
		c0.847,0,1.481,0.129,1.916,0.385c0.419,0.238,0.702,0.66,0.763,1.139l1.396-0.075c-0.024-0.467-0.207-0.885-0.541-1.253
		s-0.815-0.648-1.437-0.837c-0.625-0.19-1.342-0.284-2.16-0.284c-0.682-0.008-1.361,0.083-2.018,0.27
		c-0.604,0.183-1.064,0.447-1.381,0.797c-0.314,0.348-0.471,0.724-0.471,1.123c0,0.366,0.138,0.719,0.385,0.99
		c0.258,0.293,0.65,0.541,1.176,0.739c0.404,0.155,1.113,0.32,2.123,0.495c1.012,0.176,1.662,0.307,1.959,0.389
		c0.459,0.127,0.789,0.281,0.988,0.469c0.203,0.187,0.303,0.404,0.303,0.652c0,0.246-0.105,0.473-0.312,0.682
		c-0.209,0.207-0.524,0.371-0.95,0.49c-0.425,0.119-0.914,0.179-1.47,0.179c-0.627,0-1.188-0.078-1.688-0.235
		c-0.498-0.156-0.866-0.361-1.104-0.618c-0.238-0.255-0.39-0.581-0.453-0.979l-1.373,0.087c0.018,0.531,0.221,1.009,0.602,1.429
		c0.385,0.423,0.912,0.736,1.586,0.945c0.67,0.21,1.506,0.313,2.502,0.313c0.783,0,1.49-0.104,2.117-0.311
		c0.629-0.209,1.109-0.5,1.445-0.874c0.336-0.373,0.502-0.771,0.502-1.195s-0.152-0.803-0.457-1.13
		C98.439,33.596,97.967,33.326,97.326,33.111z"/>
	<path d="M110.488,3.552L100.1,23.977h3.541l2.734-5.373h12.273l2.731,5.373h3.58L114.568,3.552H110.488z M107.659,16.073
		l4.85-9.532l4.849,9.532H107.659z"/>
	<polygon points="129.338,21.691 129.338,3.574 126.467,3.574 126.467,24.018 144.787,24.018 144.787,21.691 	"/>
	<path d="M63.709,29.352l-4.566,7.946h1.556l1.201-2.091h5.393l1.201,2.091h1.573l-4.565-7.946H63.709z M62.466,34.223l2.131-3.709
		l2.131,3.709H62.466z"/>
	<rect x="85.533" y="31.682" width="1.467" height="5.616"/>
	<path d="M55.799,29.352h-5.655h-0.001v7.947h1.495v-3.337h3.207c0.308,0.004,0.61,0.004,0.902-0.007
		c0.575-0.021,1.074-0.102,1.577-0.385c0.733-0.416,1.217-1.119,1.217-1.914C58.541,30.389,57.307,29.352,55.799,29.352z
		 M57.19,31.725l-0.004,0.062l-0.008,0.062l-0.011,0.062l-0.014,0.062l-0.017,0.061l-0.021,0.059l-0.023,0.059L57.064,32.2
		l-0.03,0.058l-0.033,0.057l-0.036,0.056l-0.039,0.055l-0.042,0.054l-0.045,0.053l-0.048,0.05l-0.051,0.048l-0.054,0.047
		l-0.057,0.045l-0.059,0.041L56.51,32.8l-0.064,0.036L56.38,32.87l-0.068,0.03l-0.07,0.027l-0.073,0.024l-0.074,0.021l-0.076,0.02
		l-0.077,0.014l-0.08,0.01l-0.081,0.006l-0.093,0.004h-3.987v-2.737h3.985l0.095,0.003l0.081,0.005l0.08,0.011l0.077,0.014
		l0.076,0.019l0.074,0.021l0.073,0.024l0.07,0.027l0.068,0.03l0.066,0.035l0.064,0.037l0.062,0.038l0.059,0.042l0.057,0.045
		l0.054,0.047l0.051,0.047l0.048,0.051l0.045,0.053l0.042,0.053l0.039,0.055L57.003,31l0.033,0.057l0.03,0.059l0.026,0.058
		l0.023,0.058l0.021,0.061l0.017,0.061l0.014,0.06l0.011,0.062l0.008,0.062l0.004,0.062l0.002,0.062L57.19,31.725z"/>
	<path d="M81.419,31.656c0-1.268-1.233-2.305-2.742-2.305h-5.654h-0.002v7.947h1.495v-3.337h3.207l2.617,3.337h1.557l-2.653-3.387
		C80.48,33.691,81.419,32.761,81.419,31.656z M79.122,32.928l-0.072,0.024l-0.073,0.021l-0.076,0.02l-0.078,0.014l-0.078,0.01
		l-0.082,0.006l-0.092,0.004h-3.988v-2.737h3.986l0.094,0.003l0.08,0.005l0.078,0.011l0.078,0.014l0.076,0.019l0.073,0.021
		l0.072,0.024l0.069,0.027l0.068,0.03l0.066,0.035l0.064,0.037l0.061,0.038l0.059,0.042l0.057,0.045l0.056,0.047l0.051,0.047
		l0.047,0.051l0.048,0.053l0.041,0.053l0.039,0.055L79.882,31l0.031,0.057l0.028,0.059l0.027,0.058l0.023,0.058l0.02,0.061
		l0.018,0.061l0.015,0.06l0.013,0.062l0.008,0.062l0.004,0.062l0.002,0.062l-0.002,0.064l-0.004,0.062l-0.008,0.062l-0.013,0.062
		l-0.015,0.062l-0.018,0.061l-0.02,0.059l-0.023,0.059L79.943,32.2l-0.029,0.058l-0.031,0.057l-0.037,0.056l-0.039,0.055
		l-0.041,0.054l-0.047,0.053l-0.047,0.05l-0.051,0.048l-0.055,0.047l-0.058,0.045l-0.059,0.041l-0.062,0.04l-0.063,0.036
		L79.26,32.87l-0.068,0.03L79.122,32.928z"/>
</g>
</svg>
