<svg xmlns="http://www.w3.org/2000/svg" width="154" height="62.734" viewBox="0 0 154 62.734"><path fill-rule="evenodd" clip-rule="evenodd" fill="#00000" d="M29.072 39.994c3.14.104 7.964-1.863 9.971-5.627 3.994-7.847 9.751-20.531 10.14-20.531.415 0 8.944 17.96 9.9 17.96 1.085 0 8.465-17.974 9.453-17.96 1.061.009 13.339 25.968 14.354 25.957 1.047.012 9.702-17.856 10.708-17.856 1.001 0 9.372 17.89 10.401 17.856 1.234 0 6.174-11.999 20.928-39.656-5.777.239-8.457 1.992-10.183 5.485-1.507 3.088-9.741 20.49-10.745 20.492-1.002-.002-9.429-19.286-10.401-19.295-1.063.009-9.864 19.293-10.849 19.295C81.699 26.112 69.563.005 68.506 0c-.988.001-8.35 16.949-9.423 16.937-.934.012-8.596-16.845-9.9-16.845-1.378-.001-18.55 37.165-20.111 39.902z"></path><g fill="gray"><path fill-rule="evenodd" clip-rule="evenodd" d="M141.299 52.667l-6.025.009h-.001v10.056h1.496v-8.68h4.53zM113.496 52.679h-7.199v1.373h2.836v8.68h1.497v-8.68h2.866zM127.394 52.692h-1.501v8.548h-3.943v-8.548h-1.495v10.04h.001v.002h6.938zM99.713 54.052v-1.373h-6.652v.013h-.004v10.04h.004v.002h6.652V61.24h-5.158v-7.188zM85.802 54.052v-1.373h-6.411v.013h-.002v10.04h.002v.002h6.411V61.24h-4.92v-2.842h3.031v-1.416h-3.031v-2.93zM154 54.052v-1.373h-6.418v10.055H154V61.24h-4.923v-2.842h3.032v-1.416h-3.032v-2.93zM56.091 52.692h1.495v10.04h-1.495zM46.226 52.692v4.373h-3.955v-4.373h-1.625v10.04h1.496v-4.303h4.084v4.303h1.495v-10.04z"></path><path d="M33.539 54.052v-1.373h-6.655v.013h-.001v10.04h.001v.002h6.655V61.24H28.38v-7.188zM14.551 52.679v.013h-.004v10.04h1.497v-8.68h4.532v-1.373zM0 62.732h1.495v-4.303h3.954v4.303h1.495v-10.04h-.002v-.013H0V62.732zm5.327-8.68v3.013H1.373v-3.013h3.954zM72.259 52.679h-7.214v1.373h2.84v8.68h1.495v-8.68h2.879zM56.096 49.744h1.483v1.483h-1.483z"></path></g></svg>