<?xml version="1.0" encoding="utf-8"?>
<!-- Generator: Adobe Illustrator 16.0.0, SVG Export Plug-In . SVG Version: 6.00 Build 0)  -->
<!DOCTYPE svg PUBLIC "-//W3C//DTD SVG 1.1//EN" "http://www.w3.org/Graphics/SVG/1.1/DTD/svg11.dtd">
<svg version="1.1" id="Layer_1" xmlns="http://www.w3.org/2000/svg" xmlns:xlink="http://www.w3.org/1999/xlink" x="0px" y="0px"
	 width="115.099px" height="33.648px" viewBox="-4.487 51.659 115.099 33.648"
	 enable-background="new -4.487 51.659 115.099 33.648" xml:space="preserve">
<path d="M78.538,72.562c-5.461,0-7.41-6.124-7.41-10.313c0-3.854,1.18-8.877,6.286-8.877c5.46,0,7.405,6.175,7.405,10.373
	C84.821,67.599,83.648,72.562,78.538,72.562L78.538,72.562z M52.085,65.67c-2.194,0-5.215-2.12-5.215-7.036
	c0-2.567,1.026-5.271,4.193-5.271c3.929,0,5.36,4.102,5.36,7.188C56.429,63.16,55.198,65.67,52.085,65.67z M23.03,61.133
	c0-3.027,1.646-7.763,5.174-7.763c2.7,0,4.444,3.034,5.26,5.162L23.03,61.133z M77.359,74.016c8.952,0,11.603-7.617,11.603-11.483
	c0-6.023-3.778-10.609-10.368-10.609c-8.943,0-11.604,7.624-11.604,11.487C66.989,69.432,70.77,74.016,77.359,74.016L77.359,74.016z
	 M51.169,85.307c4.851,0,12.721-1.753,12.721-7.572c0-3.855-2.777-5.36-6.038-5.964c-0.88-0.148-1.767-0.253-2.658-0.312
	l-2.854-0.193c-4.287-0.297-5.413-0.537-5.413-1.844c0-0.817,1.028-2.078,1.636-2.655c1.023,0.243,2.045,0.338,3.111,0.338
	c4.753,0,8.639-3.412,8.639-7.968c0-1.835-0.562-3.277-1.791-4.678c1.324,0.194,1.894,0.241,2.864,0.241
	c0.656,0,1.018-0.143,1.224-1.106c0.1-0.436,0.354-1.217,0.354-1.5c0-0.288-0.208-0.435-0.461-0.435
	c-0.715,0-0.151,1.118-2.752,1.118c-1.537,0-3.021-0.146-4.501-0.438c-1.182-0.239-2.194-0.434-3.426-0.434
	c-4.961,0-8.842,3.568-8.842,8.246c0,2.847,1.53,4.877,4.144,6.13c-1.844,1.871-3.214,3.324-3.214,4.724
	c0,0.28,0.046,0.521,0.136,0.759c0.402,1.066,1.64,1.696,2.777,2.099c-2.66,0.917-5.566,2.646-5.566,5.635
	C41.258,81.113,42.274,85.307,51.169,85.307z M28.462,74.016c3.682,0,6.995-1.308,9.6-3.812l-0.716-0.866
	c-1.889,1.557-3.919,2.407-6.436,2.407c-5.882,0-7.978-4.431-8.229-9.158l14.97-3.812c-1.884-3.811-4.284-6.852-9.046-6.852
	c-6.692,0-9.913,6.124-9.913,11.676C18.704,69.24,22.028,74.016,28.462,74.016z M7.108,51.922c-8.942,0-11.595,7.624-11.595,11.487
	c0,6.021,3.777,10.602,10.37,10.602c3.317,0,6.641-1.146,8.888-3.524l-0.715-0.854c-1.656,1.36-3.731,2.108-5.876,2.116
	c-5.987,0-8.688-4.39-8.688-9.546c0-4.151,2.09-8.966,7.202-8.966c0.769,0,1.58,0.137,2.2,0.521
	c0.249,1.651,1.531,4.103,3.521,4.103c0.862,0,1.582-0.573,1.582-1.398C14.004,54.385,10.686,51.922,7.108,51.922z M97.443,57.082
	c0-2.455,3.021-3.56,5.162-3.56c1.938,0,4.603,0.855,5.464,2.698c0.146,0.286,0.258,0.526,0.67,0.526
	c0.359,0,0.463-0.188,0.463-0.674c0-0.381-0.157-1.636-0.312-3.084c-1.637-0.723-3.788-1.062-5.42-1.062
	c-7.156,0-9.194,4.146-9.194,6.467c0,7.568,12.876,4.682,12.876,9.598c0,3.234-3.218,4.446-5.979,4.446
	c-2.048,0-5.569-1.063-6.242-3.23c-0.104-0.438-0.308-0.771-0.707-0.771c-0.356,0-0.575,0.143-0.575,0.717
	c0,0.392,0.261,1.787,0.619,3.921c1.939,0.672,4.028,0.958,6.08,0.958c4.493,0,10.265-1.935,10.265-6.986
	C110.624,59.354,97.443,61.951,97.443,57.082L97.443,57.082z M52.186,83.853c-3.062,0-7.712-1.059-7.712-4.729
	c0-2.607,2.657-4.29,5.168-4.675l4.998,0.526c3.116,0.334,6.027,0.819,6.027,3.859C60.668,82.65,55.409,83.853,52.186,83.853z"/>
</svg>
