<?xml version="1.0" encoding="utf-8"?>
<!-- Generator: Adobe Illustrator 16.0.0, SVG Export Plug-In . SVG Version: 6.00 Build 0)  -->
<!DOCTYPE svg PUBLIC "-//W3C//DTD SVG 1.1//EN" "http://www.w3.org/Graphics/SVG/1.1/DTD/svg11.dtd">
<svg version="1.1" id="Layer_1" xmlns="http://www.w3.org/2000/svg" xmlns:xlink="http://www.w3.org/1999/xlink" x="0px" y="0px"
	 width="159.798px" height="87.179px" viewBox="52.601 1 159.798 87.179" enable-background="new 52.601 1 159.798 87.179"
	 xml:space="preserve">
<g>
	<path d="M132.505,1C88.196,1,52.601,20.711,52.601,44.59c0,23.877,35.241,43.589,79.904,43.589
		c44.401,0,79.895-19.712,79.895-43.589C212.397,20.711,176.729,1,132.505,1z M132.421,85.909c-40.76,0-75.643-18.875-75.643-41.343
		c0-22.466,35.682-41.749,75.643-41.749c40.667,0,75.598,19.283,75.598,41.749C208.019,67.034,172.911,85.909,132.421,85.909z"/>
	<path d="M192.748,39.162c-2.458,0.501-4.742,1.286-7.083,1.984c-1.506,0.451-3.037,0.865-4.658,1.141l-0.66-0.009l0.288-0.437
		c0.228-0.234,0.454-0.467,0.688-0.695c2.338-2.295,4.988-4.274,7.435-6.498c0.769-0.896,2.45-1.58,1.905-3.209
		c-0.498-0.26-1.848,0.283-2.491,0.57c-4.756,2.456-9.134,5.215-13.153,9.052c-0.119,0.112-0.234,0.224-0.354,0.337
		c-2.281,1.725-2.702,5.717-6.119,5.486c-2.167-0.2-2.479-0.179-3.312-0.473c3.484-2.69,10.189-11.586,10.789-13.712
		c0,0,0.602-1.925-0.229-1.86c-3.194,1.164-6.21,3.869-8.7,6.061c0.231-1.08,1.982-3.143,1.131-4.385
		c-5.533,1.165-13.334,8.568-13.373,8.593c-1.48,0.983-2.029,4.145-4.336,3.675c-1.443-0.199-3.183-0.217-4.033-0.705
		c1.485-0.884,2.906-1.873,4.281-2.932c3.195-2.453,6.163-5.273,9.188-7.988c0.173-0.396,1.17-0.791,0.604-1.391
		c-0.965-0.771-2.095,0.367-3.143,0.551c-4.791,2.1-8.028,4.926-11.189,8.828c-0.592,0.729-1.473,1.67-1.998,2.51
		c-2.26-0.266-3.465-0.146-4.568-0.861c0.675-0.558,1.359-1.104,2.046-1.648c3.687-2.92,7.444-5.799,10.258-10.13
		c-0.283-1.47-1.763-0.292-2.474-0.011c-5.029,2.483-9.164,5.546-12.33,10.397c-0.196,0.299-0.385,0.606-0.567,0.925
		c-2.215-0.059-4.129-0.492-6.042-0.93c-0.041-0.01-0.081-0.019-0.122-0.027l0.017-0.205c4.822-2.465,9.119-6.698,12.443-11.7
		c0,0,2.76-4.841-3.294-0.839c-4.517,2.904-8.632,6.738-11.516,12.191c0,0-3.038,0.115-3.038-0.217
		c2.926-3.592,6.32-8.227,8.04-12.957c0.163-0.737,0.612-2.283-0.474-2.447c-4.066,1.707-6.754,6.49-8.935,10.974
		c-0.666,1.316-1.028,2.978-1.62,4.232c-2.723-0.134-4.604,0.104-7.215-0.675c3.273-2.875,6.852-5.243,9.834-8.695
		c0.505-0.939,3.857-3.236,3.773-6.199c-1.045-0.641-2.094,0.115-2.731,0.585l-9.188,7.322l-0.481,0.025
		c1.465-2.62,4.662-6.455,5.976-9.163c0.44-0.908,0.987-1.733,0.946-2.838l-0.812-0.263c-6.643,2.855-12.367,9.367-14.613,17.763
		c-0.551,0.777-0.817,2.266-1.948,1.822c-0.142-2.28-0.853-4.404-1.633-6.467c-2.849-5.955-6.935-10.299-12.16-13.438
		c-0.853-0.486-1.344,0.434-1.063,1.145c0.733,4.189,3.322,6.821,5.105,10.002c2.12,3.279,4.997,6.244,7.42,9.205
		c-0.826,0.283-19.721,4.781-23.08,7.502c-1.764,0.971-4.586,3.227-4.542,8.168c0.148,1.456,1.166,2.888,2.458,3.32
		c1.222,0.176,2.084,0.283,2.889-0.267C84.463,54.82,88.5,50.76,92.999,48.06c3.087-1.616,5.354-3.2,8.898-3.646
		c1.461,1.363,2.408,3.157,4.403,4.809c3.931,3.578,7.382,6.008,12.802,6.895l0.541-0.18l-0.199-0.498
		c-2.864-4.17-7.248-6.801-11.731-8.98c-0.769-0.58-2.626-1.561-2.729-2.739c2.764-0.927,6.44-1.194,9.762-0.397
		c3.965,6.889,8.338,14.449,14.695,18.787c0.475,0.109,0.806-0.549,0.567-0.98c-4.407-10.733-7.226-11.701-11.743-16.632
		c-0.242-0.365-0.58-1.221,0.063-1.506l4.221,0.066c1.358,0.188,3.218-0.199,3.548,0.398c0.204,7.098,4.774,12.523,7.533,17.922
		c0,0,0.887,0.51,0.838-0.417l0.029-0.06c-1.129-12.499-5.811-15.377-6.52-17.501c0.721-0.05,1.512-0.005,2.103,0.32
		c2.972,6.047,7.006,10.612,12.319,14.036c0.117,0.075,0.777,0.157,0.349-0.807c-1.545-5.193-6.317-7.854-9.413-11.768l-0.542-1.011
		l0.626-0.083c1.326,0.264,3.119,0.563,4.094,1.197c1.766,3.387,4.148,6,6.688,8.422c2.102,1.902,3.899,4.123,7.075,4.744
		l0.336-0.049l0.102-0.273l-0.098-0.403c-1.967-5.142-7.266-7.306-11.006-10.931c-0.254-0.229-0.725-1.164-0.022-1.31l6.024,0.875
		c9.062,12.101,12.57,11.618,12.57,11.618s2.719,0.631,1.475-1.361c-2.955-3.07-5.531-4.48-9.063-7.28
		c-0.635-0.606-2.223-1.676-2.059-2.762c1.294,0.2,1.511,0.183,4.149,0.481c0.83,0.119,1.951,0.264,2.59,0.549
		c4.73,2.111,5.146,8.732,16.633,10.124c0.408,0.036,0.496-0.514,0.213-0.874c-3.281-2.555-11.838-8.293-12.363-8.951
		c1.096,0.099,5.696,0.756,6.422,1.095c5.778,3.118,9.312,5.444,17.579,4.351c0.71-1.039-0.442-1.459-1.419-1.844l-4.654-1.811
		c-0.604-0.189-3.188-0.696-4.117-0.995c4.947-1.56,11.475-3.362,15.828-6.005c0.69-0.541,1.508-0.955,2.184-1.551
		c0.457-0.403,0.845-0.898,1.084-1.566C193.892,38.844,192.748,39.162,192.748,39.162z M109.576,40.026
		c-0.521-0.32-0.107-0.955,0.053-1.217c0.155-0.192,1.931-3.385,3.499-2.564C113.405,37.035,110.687,40.203,109.576,40.026z
		 M164.078,41.156c-0.871,1.43-0.246,3.473-1.388,4.807l-7.719-0.994c4.481-1.596,8.123-4.656,10.274-5.902L164.078,41.156z
		 M172.403,47.104c-0.062-0.832,0.896-1.571,1.494-2.137c2.597-2.125,2.985-0.059,2.985-0.059
		C175.703,45.838,174.028,46.934,172.403,47.104z"/>
</g>
</svg>
