<?xml version="1.0" encoding="utf-8"?>
<!-- Generator: Adobe Illustrator 16.0.0, SVG Export Plug-In . SVG Version: 6.00 Build 0)  -->
<!DOCTYPE svg PUBLIC "-//W3C//DTD SVG 1.1//EN" "http://www.w3.org/Graphics/SVG/1.1/DTD/svg11.dtd">
<svg version="1.1" id="Layer_1" xmlns="http://www.w3.org/2000/svg" xmlns:xlink="http://www.w3.org/1999/xlink" x="0px" y="0px"
	 width="205.64px" height="20.077px" viewBox="8.827 4.485 205.64 20.077" enable-background="new 8.827 4.485 205.64 20.077"
	 xml:space="preserve">
<title>Page 1</title>
<path d="M84.196,4.485c-5.544,0.273-9.817,4.989-9.544,10.533c0.254,5.162,4.382,9.29,9.544,9.544
	c5.544,0,10.039-4.494,10.039-10.039C94.235,8.98,89.74,4.485,84.196,4.485z M125.507,4.485c-5.544,0.273-9.815,4.989-9.544,10.533
	c0.254,5.162,4.382,9.29,9.544,9.544c5.544,0,10.039-4.494,10.039-10.039C135.546,8.98,131.051,4.485,125.507,4.485z M8.827,4.911
	V24.21h3.346v-5.256c0.706,0,1.448-0.111,2.105-0.271l2.263,5.522h3.772l-3.042-6.729c1.824-1.316,2.899-3.434,2.884-5.684
	c0-4.428-3.468-7.19-8.25-7.19C10.738,4.607,9.533,4.753,8.827,4.911L8.827,4.911z M51.184,9.304l2.726-2.129
	c-1.118-1.585-2.928-2.54-4.868-2.567c-2.861-0.06-5.23,2.21-5.292,5.072v0.063c0,2.178,1.097,3.687,3.967,5.792
	c1.91,1.4,2.812,2.446,2.812,3.543c-0.026,1.124-0.945,2.021-2.069,2.021c-0.888,0-1.825-0.55-2.528-1.861l-2.801,2.373
	c1.25,1.704,3.217,2.737,5.329,2.8c3.022,0.008,5.506-2.385,5.61-5.404c0-2.457-1.205-4.088-4.479-6.301
	c-1.823-1.363-2.458-2.033-2.458-3.08c0-1.047,0.901-1.789,1.91-1.789C49.906,7.832,50.636,8.537,51.184,9.304L51.184,9.304z
	 M99.54,4.911V24.21h3.274v-5.367c5.098,0,8.091-2.993,8.091-7.045c0-4.088-3.115-7.191-8.408-7.191
	C101.56,4.607,100.282,4.753,99.54,4.911z M27.043,4.753V24.21h9.734v-3.349H30.28v-4.233h5.682v-3.272H30.28v-5.33h6.498V4.753
	H27.043z M59.593,4.753v3.273h3.932V24.21h3.395V8.026h3.896V4.753H59.593z M144.622,20.863V4.753h-3.432V24.21h9.041v-3.349
	L144.622,20.863L144.622,20.863z M156.924,4.753V24.21h3.349V4.753H156.924z M167.085,4.753v3.273h3.895V24.21h3.384V8.026h3.894
	V4.753H167.085z M190.607,4.753h-3.541l-5.062,19.458h3.613l0.706-3.273h5.014l0.705,3.273h3.542L190.607,4.753L190.607,4.753z
	 M214.467,4.753h-3.271v12.18l-6.73-12.18h-3.004V24.21h3.272V12.188l6.741,12.022h2.991V4.753L214.467,4.753z M84.16,21.095
	c-3.674-0.006-6.649-2.982-6.656-6.656c0.223-3.676,3.382-6.475,7.058-6.253h0.003c3.365,0.204,6.049,2.888,6.253,6.253
	C90.808,18.112,87.833,21.087,84.16,21.095z M125.469,21.095c-3.672-0.007-6.647-2.983-6.652-6.656
	c-0.221-3.676,2.58-6.835,6.256-7.056c3.676-0.221,6.835,2.58,7.056,6.256c0.017,0.267,0.017,0.534,0,0.8
	C132.119,18.113,129.142,21.087,125.469,21.095L125.469,21.095z M12.174,15.8V7.99h0.158c2.762,0,4.516,1.752,4.516,3.687
	C16.846,14.208,15.216,15.8,12.174,15.8z M102.814,15.8V7.99h0.389c2.727,0,4.319,1.752,4.319,3.687
	C107.522,14.255,105.928,15.8,102.814,15.8z M190.665,17.871h-3.686l1.825-8.519L190.665,17.871L190.665,17.871z"/>
</svg>
