<svg width="18" height="18" xmlns="http://www.w3.org/2000/svg"><path d="M16.252 13.615c-.15.008-.29.008-.44.008-2.422 0-4.702-.883-6.417-2.493-1.714-1.61-2.654-3.752-2.654-6.026A8.118 8.118 0 0 1 8.546 0c-.632.063-1.24.188-1.83.36C2.82 1.516 0 4.932 0 8.973 0 13.959 4.302 18 9.612 18c2.937 0 5.559-1.235 7.323-3.181.4-.446.765-.93 1.065-1.446a9.206 9.206 0 0 1-1.748.242zm-6.64 3.134c-4.569 0-8.28-3.485-8.28-7.776 0-3.056 1.88-5.698 4.61-6.972a9.169 9.169 0 0 0-.533 3.103c0 5.15 4.244 9.371 9.62 9.746-1.448 1.188-3.345 1.9-5.417 1.9z" fill="#000" fill-rule="nonzero"/></svg>